<mxfile host="app.diagrams.net" modified="2022-02-28T07:20:36.641Z" agent="5.0 (Macintosh; Intel Mac OS X 10_15_7) AppleWebKit/537.36 (KHTML, like Gecko) Chrome/98.0.4758.102 Safari/537.36" etag="oNfz2rIgnYekhV3uoLAt" version="16.6.4" type="github" pages="2">
  <diagram id="bwVVq63VZC0wlDfdRpbX" name="Page-1">
    <mxGraphModel dx="1351" dy="761" grid="1" gridSize="10" guides="1" tooltips="1" connect="1" arrows="1" fold="1" page="1" pageScale="1" pageWidth="827" pageHeight="1169" math="0" shadow="0">
      <root>
        <mxCell id="0" />
        <mxCell id="1" parent="0" />
        <mxCell id="aipiy_HO2YyQXCgkY3Jp-2" value="&lt;span style=&quot;color: rgba(0, 0, 0, 0); font-family: monospace; font-size: 0px; font-style: normal; font-weight: normal; letter-spacing: normal; text-indent: 0px; text-transform: none; word-spacing: 0px; background-color: rgb(248, 249, 250); text-decoration: none; display: inline; float: none;&quot;&gt;%3CmxGraphModel%3E%3Croot%3E%3CmxCell%20id%3D%220%22%2F%3E%3CmxCell%20id%3D%221%22%20parent%3D%220%22%2F%3E%3CmxCell%20id%3D%222%22%20value%3D%22%22%20style%3D%22rounded%3D1%3BwhiteSpace%3Dwrap%3Bhtml%3D1%3BfillColor%3D%2379d9ce%3BstrokeColor%3Dnone%3Bshadow%3D1%3Bglass%3D0%3Bcomic%3D0%3BgradientColor%3Dnone%3B%22%20vertex%3D%221%22%20parent%3D%221%22%3E%3CmxGeometry%20x%3D%22363.5%22%20y%3D%221650%22%20width%3D%22221%22%20height%3D%22280%22%20as%3D%22geometry%22%2F%3E%3C%2FmxCell%3E%3CmxCell%20id%3D%223%22%20value%3D%22chunk1%22%20style%3D%22text%3Bhtml%3D1%3Balign%3Dcenter%3BverticalAlign%3Dmiddle%3Bresizable%3D0%3Bpoints%3D%5B%5D%3Bautosize%3D1%3BstrokeColor%3Dnone%3BfillColor%3Dnone%3BfontSize%3D18%3BfontFamily%3DTimes%20New%20Roman%3BfontColor%3D%23000000%3B%22%20vertex%3D%221%22%20parent%3D%221%22%3E%3CmxGeometry%20x%3D%22435%22%20y%3D%221615%22%20width%3D%2270%22%20height%3D%2230%22%20as%3D%22geometry%22%2F%3E%3C%2FmxCell%3E%3CmxCell%20id%3D%224%22%20value%3D%22%22%20style%3D%22rounded%3D1%3BwhiteSpace%3Dwrap%3Bhtml%3D1%3BfillColor%3D%2379d9ce%3BstrokeColor%3Dnone%3Bshadow%3D1%3Bglass%3D0%3Bcomic%3D0%3BgradientColor%3Dnone%3B%22%20vertex%3D%221%22%20parent%3D%221%22%3E%3CmxGeometry%20x%3D%22610%22%20y%3D%221650%22%20width%3D%22221%22%20height%3D%22280%22%20as%3D%22geometry%22%2F%3E%3C%2FmxCell%3E%3CmxCell%20id%3D%225%22%20value%3D%22%22%20style%3D%22rounded%3D1%3BwhiteSpace%3Dwrap%3Bhtml%3D1%3BfillColor%3D%2379d9ce%3BstrokeColor%3Dnone%3Bshadow%3D1%3Bglass%3D0%3Bcomic%3D0%3BgradientColor%3Dnone%3B%22%20vertex%3D%221%22%20parent%3D%221%22%3E%3CmxGeometry%20x%3D%22850%22%20y%3D%221650%22%20width%3D%22221%22%20height%3D%22280%22%20as%3D%22geometry%22%2F%3E%3C%2FmxCell%3E%3CmxCell%20id%3D%226%22%20value%3D%22chunk2%22%20style%3D%22text%3Bhtml%3D1%3Balign%3Dcenter%3BverticalAlign%3Dmiddle%3Bresizable%3D0%3Bpoints%3D%5B%5D%3Bautosize%3D1%3BstrokeColor%3Dnone%3BfillColor%3Dnone%3BfontSize%3D18%3BfontFamily%3DTimes%20New%20Roman%3BfontColor%3D%23000000%3B%22%20vertex%3D%221%22%20parent%3D%221%22%3E%3CmxGeometry%20x%3D%22670%22%20y%3D%221610%22%20width%3D%2270%22%20height%3D%2230%22%20as%3D%22geometry%22%2F%3E%3C%2FmxCell%3E%3CmxCell%20id%3D%227%22%20value%3D%22chunk3%22%20style%3D%22text%3Bhtml%3D1%3Balign%3Dcenter%3BverticalAlign%3Dmiddle%3Bresizable%3D0%3Bpoints%3D%5B%5D%3Bautosize%3D1%3BstrokeColor%3Dnone%3BfillColor%3Dnone%3BfontSize%3D18%3BfontFamily%3DTimes%20New%20Roman%3BfontColor%3D%23000000%3B%22%20vertex%3D%221%22%20parent%3D%221%22%3E%3CmxGeometry%20x%3D%22925.5%22%20y%3D%221610%22%20width%3D%2270%22%20height%3D%2230%22%20as%3D%22geometry%22%2F%3E%3C%2FmxCell%3E%3CmxCell%20id%3D%228%22%20value%3D%22TRP1%20QPS%3A100%22%20style%3D%22rounded%3D1%3BwhiteSpace%3Dwrap%3Bhtml%3D1%3BfillColor%3D%23696773%3BstrokeColor%3Dnone%3Bshadow%3D1%3Bglass%3D0%3Bcomic%3D0%3BgradientColor%3Dnone%3BfontFamily%3DCourier%20New%3BfontColor%3D%23FFFFFF%3B%22%20vertex%3D%221%22%20parent%3D%221%22%3E%3CmxGeometry%20x%3D%22414%22%20y%3D%221670%22%20width%3D%22120%22%20height%3D%2240%22%20as%3D%22geometry%22%2F%3E%3C%2FmxCell%3E%3CmxCell%20id%3D%229%22%20value%3D%22%22%20style%3D%22rounded%3D1%3BwhiteSpace%3Dwrap%3Bhtml%3D1%3BfillColor%3D%2379d9ce%3BstrokeColor%3Dnone%3Bshadow%3D1%3Bglass%3D0%3Bcomic%3D0%3BgradientColor%3Dnone%3B%22%20vertex%3D%221%22%20parent%3D%221%22%3E%3CmxGeometry%20x%3D%221090%22%20y%3D%221650%22%20width%3D%22221%22%20height%3D%22280%22%20as%3D%22geometry%22%2F%3E%3C%2FmxCell%3E%3CmxCell%20id%3D%2210%22%20value%3D%22chunk4%22%20style%3D%22text%3Bhtml%3D1%3Balign%3Dcenter%3BverticalAlign%3Dmiddle%3Bresizable%3D0%3Bpoints%3D%5B%5D%3Bautosize%3D1%3BstrokeColor%3Dnone%3BfillColor%3Dnone%3BfontSize%3D18%3BfontFamily%3DTimes%20New%20Roman%3BfontColor%3D%23000000%3B%22%20vertex%3D%221%22%20parent%3D%221%22%3E%3CmxGeometry%20x%3D%221171%22%20y%3D%221610%22%20width%3D%2270%22%20height%3D%2230%22%20as%3D%22geometry%22%2F%3E%3C%2FmxCell%3E%3CmxCell%20id%3D%2211%22%20value%3D%22TRP1%20QPS%3A200%22%20style%3D%22rounded%3D1%3BwhiteSpace%3Dwrap%3Bhtml%3D1%3BfillColor%3D%23696773%3BstrokeColor%3Dnone%3Bshadow%3D1%3Bglass%3D0%3Bcomic%3D0%3BgradientColor%3Dnone%3BfontFamily%3DCourier%20New%3BfontColor%3D%23FFFFFF%3B%22%20vertex%3D%221%22%20parent%3D%221%22%3E%3CmxGeometry%20x%3D%22410%22%20y%3D%221733.5%22%20width%3D%22120%22%20height%3D%2240%22%20as%3D%22geometry%22%2F%3E%3C%2FmxCell%3E%3CmxCell%20id%3D%2212%22%20value%3D%22TRP1%20QPS%3A500%22%20style%3D%22rounded%3D1%3BwhiteSpace%3Dwrap%3Bhtml%3D1%3BfillColor%3D%23696773%3BstrokeColor%3Dnone%3Bshadow%3D1%3Bglass%3D0%3Bcomic%3D0%3BgradientColor%3Dnone%3BfontFamily%3DCourier%20New%3BfontColor%3D%23FFFFFF%3B%22%20vertex%3D%221%22%20parent%3D%221%22%3E%3CmxGeometry%20x%3D%22414%22%20y%3D%221800%22%20width%3D%22120%22%20height%3D%2240%22%20as%3D%22geometry%22%2F%3E%3C%2FmxCell%3E%3CmxCell%20id%3D%2213%22%20value%3D%22TRP1%20QPS%3A600%22%20style%3D%22rounded%3D1%3BwhiteSpace%3Dwrap%3Bhtml%3D1%3BfillColor%3D%23696773%3BstrokeColor%3Dnone%3Bshadow%3D1%3Bglass%3D0%3Bcomic%3D0%3BgradientColor%3Dnone%3BfontFamily%3DCourier%20New%3BfontColor%3D%23FFFFFF%3B%22%20vertex%3D%221%22%20parent%3D%221%22%3E%3CmxGeometry%20x%3D%22410%22%20y%3D%221870%22%20width%3D%22120%22%20height%3D%2240%22%20as%3D%22geometry%22%2F%3E%3C%2FmxCell%3E%3CmxCell%20id%3D%2214%22%20value%3D%22TRP1%20QPS%3A%20300%22%20style%3D%22rounded%3D1%3BwhiteSpace%3Dwrap%3Bhtml%3D1%3BfillColor%3D%23696773%3BstrokeColor%3Dnone%3Bshadow%3D1%3Bglass%3D0%3Bcomic%3D0%3BgradientColor%3Dnone%3BfontFamily%3DCourier%20New%3BfontColor%3D%23FFFFFF%3B%22%20vertex%3D%221%22%20parent%3D%221%22%3E%3CmxGeometry%20x%3D%22660.5%22%20y%3D%221670%22%20width%3D%22120%22%20height%3D%2240%22%20as%3D%22geometry%22%2F%3E%3C%2FmxCell%3E%3CmxCell%20id%3D%2215%22%20value%3D%22TRP1%20QPS%3A%20300%22%20style%3D%22rounded%3D1%3BwhiteSpace%3Dwrap%3Bhtml%3D1%3BfillColor%3D%23696773%3BstrokeColor%3Dnone%3Bshadow%3D1%3Bglass%3D0%3Bcomic%3D0%3BgradientColor%3Dnone%3BfontFamily%3DCourier%20New%3BfontColor%3D%23FFFFFF%3B%22%20vertex%3D%221%22%20parent%3D%221%22%3E%3CmxGeometry%20x%3D%22660.5%22%20y%3D%221733.5%22%20width%3D%22120%22%20height%3D%2240%22%20as%3D%22geometry%22%2F%3E%3C%2FmxCell%3E%3CmxCell%20id%3D%2216%22%20value%3D%22TRP1%20QPS%3A400%22%20style%3D%22rounded%3D1%3BwhiteSpace%3Dwrap%3Bhtml%3D1%3BfillColor%3D%23696773%3BstrokeColor%3Dnone%3Bshadow%3D1%3Bglass%3D0%3Bcomic%3D0%3BgradientColor%3Dnone%3BfontFamily%3DCourier%20New%3BfontColor%3D%23FFFFFF%3B%22%20vertex%3D%221%22%20parent%3D%221%22%3E%3CmxGeometry%20x%3D%22660.5%22%20y%3D%221800%22%20width%3D%22120%22%20height%3D%2240%22%20as%3D%22geometry%22%2F%3E%3C%2FmxCell%3E%3CmxCell%20id%3D%2217%22%20value%3D%22TRP1%20QPS%3A500%22%20style%3D%22rounded%3D1%3BwhiteSpace%3Dwrap%3Bhtml%3D1%3BfillColor%3D%23696773%3BstrokeColor%3Dnone%3Bshadow%3D1%3Bglass%3D0%3Bcomic%3D0%3BgradientColor%3Dnone%3BfontFamily%3DCourier%20New%3BfontColor%3D%23FFFFFF%3B%22%20vertex%3D%221%22%20parent%3D%221%22%3E%3CmxGeometry%20x%3D%22660.5%22%20y%3D%221870%22%20width%3D%22120%22%20height%3D%2240%22%20as%3D%22geometry%22%2F%3E%3C%2FmxCell%3E%3CmxCell%20id%3D%2218%22%20value%3D%22TRP1%20QPS%3A300%22%20style%3D%22rounded%3D1%3BwhiteSpace%3Dwrap%3Bhtml%3D1%3BfillColor%3D%23696773%3BstrokeColor%3Dnone%3Bshadow%3D1%3Bglass%3D0%3Bcomic%3D0%3BgradientColor%3Dnone%3BfontFamily%3DCourier%20New%3BfontColor%3D%23FFFFFF%3B%22%20vertex%3D%221%22%20parent%3D%221%22%3E%3CmxGeometry%20x%3D%22900.5%22%20y%3D%221670%22%20width%3D%22120%22%20height%3D%2240%22%20as%3D%22geometry%22%2F%3E%3C%2FmxCell%3E%3CmxCell%20id%3D%2219%22%20value%3D%22TRP1%20QPS%3A400%22%20style%3D%22rounded%3D1%3BwhiteSpace%3Dwrap%3Bhtml%3D1%3BfillColor%3D%23696773%3BstrokeColor%3Dnone%3Bshadow%3D1%3Bglass%3D0%3Bcomic%3D0%3BgradientColor%3Dnone%3BfontFamily%3DCourier%20New%3BfontColor%3D%23FFFFFF%3B%22%20vertex%3D%221%22%20parent%3D%221%22%3E%3CmxGeometry%20x%3D%22900.5%22%20y%3D%221734%22%20width%3D%22120%22%20height%3D%2240%22%20as%3D%22geometry%22%2F%3E%3C%2FmxCell%3E%3CmxCell%20id%3D%2220%22%20value%3D%22TRP1%20QPS%3A400%22%20style%3D%22rounded%3D1%3BwhiteSpace%3Dwrap%3Bhtml%3D1%3BfillColor%3D%23696773%3BstrokeColor%3Dnone%3Bshadow%3D1%3Bglass%3D0%3Bcomic%3D0%3BgradientColor%3Dnone%3BfontFamily%3DCourier%20New%3BfontColor%3D%23FFFFFF%3B%22%20vertex%3D%221%22%20parent%3D%221%22%3E%3CmxGeometry%20x%3D%22900.5%22%20y%3D%221800%22%20width%3D%22120%22%20height%3D%2240%22%20as%3D%22geometry%22%2F%3E%3C%2FmxCell%3E%3CmxCell%20id%3D%2221%22%20value%3D%22TRP1%20QPS%3A500%22%20style%3D%22rounded%3D1%3BwhiteSpace%3Dwrap%3Bhtml%3D1%3BfillColor%3D%23696773%3BstrokeColor%3Dnone%3Bshadow%3D1%3Bglass%3D0%3Bcomic%3D0%3BgradientColor%3Dnone%3BfontFamily%3DCourier%20New%3BfontColor%3D%23FFFFFF%3B%22%20vertex%3D%221%22%20parent%3D%221%22%3E%3CmxGeometry%20x%3D%22900.5%22%20y%3D%221870%22%20width%3D%22120%22%20height%3D%2240%22%20as%3D%22geometry%22%2F%3E%3C%2FmxCell%3E%3CmxCell%20id%3D%2222%22%20value%3D%22TRP1%20QPS%3A400%22%20style%3D%22rounded%3D1%3BwhiteSpace%3Dwrap%3Bhtml%3D1%3BfillColor%3D%23696773%3BstrokeColor%3Dnone%3Bshadow%3D1%3Bglass%3D0%3Bcomic%3D0%3BgradientColor%3Dnone%3BfontFamily%3DCourier%20New%3BfontColor%3D%23FFFFFF%3B%22%20vertex%3D%221%22%20parent%3D%221%22%3E%3CmxGeometry%20x%3D%221130%22%20y%3D%221670%22%20width%3D%22120%22%20height%3D%2240%22%20as%3D%22geometry%22%2F%3E%3C%2FmxCell%3E%3CmxCell%20id%3D%2223%22%20value%3D%22TRP1%20QPS%3A400%22%20style%3D%22rounded%3D1%3BwhiteSpace%3Dwrap%3Bhtml%3D1%3BfillColor%3D%23696773%3BstrokeColor%3Dnone%3Bshadow%3D1%3Bglass%3D0%3Bcomic%3D0%3BgradientColor%3Dnone%3BfontFamily%3DCourier%20New%3BfontColor%3D%23FFFFFF%3B%22%20vertex%3D%221%22%20parent%3D%221%22%3E%3CmxGeometry%20x%3D%221130%22%20y%3D%221733.5%22%20width%3D%22120%22%20height%3D%2240%22%20as%3D%22geometry%22%2F%3E%3C%2FmxCell%3E%3CmxCell%20id%3D%2224%22%20value%3D%22TRP1%20QPS%3A400%22%20style%3D%22rounded%3D1%3BwhiteSpace%3Dwrap%3Bhtml%3D1%3BfillColor%3D%23696773%3BstrokeColor%3Dnone%3Bshadow%3D1%3Bglass%3D0%3Bcomic%3D0%3BgradientColor%3Dnone%3BfontFamily%3DCourier%20New%3BfontColor%3D%23FFFFFF%3B%22%20vertex%3D%221%22%20parent%3D%221%22%3E%3CmxGeometry%20x%3D%221130%22%20y%3D%221800%22%20width%3D%22120%22%20height%3D%2240%22%20as%3D%22geometry%22%2F%3E%3C%2FmxCell%3E" style="text;whiteSpace=wrap;html=1;" vertex="1" parent="1">
          <mxGeometry x="210" y="270" width="30" height="30" as="geometry" />
        </mxCell>
        <mxCell id="aipiy_HO2YyQXCgkY3Jp-3" value="" style="rounded=1;whiteSpace=wrap;html=1;fillColor=#79d9ce;strokeColor=none;shadow=1;glass=0;comic=0;gradientColor=none;" vertex="1" parent="1">
          <mxGeometry x="363.5" y="1650" width="221" height="280" as="geometry" />
        </mxCell>
        <mxCell id="aipiy_HO2YyQXCgkY3Jp-4" value="chunk1" style="text;html=1;align=center;verticalAlign=middle;resizable=0;points=[];autosize=1;strokeColor=none;fillColor=none;fontSize=18;fontFamily=Times New Roman;fontColor=#000000;" vertex="1" parent="1">
          <mxGeometry x="435" y="1615" width="70" height="30" as="geometry" />
        </mxCell>
        <mxCell id="aipiy_HO2YyQXCgkY3Jp-5" value="" style="rounded=1;whiteSpace=wrap;html=1;fillColor=#79d9ce;strokeColor=none;shadow=1;glass=0;comic=0;gradientColor=none;" vertex="1" parent="1">
          <mxGeometry x="610" y="1650" width="221" height="280" as="geometry" />
        </mxCell>
        <mxCell id="aipiy_HO2YyQXCgkY3Jp-6" value="" style="rounded=1;whiteSpace=wrap;html=1;fillColor=#79d9ce;strokeColor=none;shadow=1;glass=0;comic=0;gradientColor=none;" vertex="1" parent="1">
          <mxGeometry x="850" y="1650" width="221" height="280" as="geometry" />
        </mxCell>
        <mxCell id="aipiy_HO2YyQXCgkY3Jp-7" value="chunk2" style="text;html=1;align=center;verticalAlign=middle;resizable=0;points=[];autosize=1;strokeColor=none;fillColor=none;fontSize=18;fontFamily=Times New Roman;fontColor=#000000;" vertex="1" parent="1">
          <mxGeometry x="670" y="1610" width="70" height="30" as="geometry" />
        </mxCell>
        <mxCell id="aipiy_HO2YyQXCgkY3Jp-8" value="chunk3" style="text;html=1;align=center;verticalAlign=middle;resizable=0;points=[];autosize=1;strokeColor=none;fillColor=none;fontSize=18;fontFamily=Times New Roman;fontColor=#000000;" vertex="1" parent="1">
          <mxGeometry x="925.5" y="1610" width="70" height="30" as="geometry" />
        </mxCell>
        <mxCell id="aipiy_HO2YyQXCgkY3Jp-9" value="TRP1 QPS:100" style="rounded=1;whiteSpace=wrap;html=1;fillColor=#696773;strokeColor=none;shadow=1;glass=0;comic=0;gradientColor=none;fontFamily=Courier New;fontColor=#FFFFFF;" vertex="1" parent="1">
          <mxGeometry x="414" y="1670" width="120" height="40" as="geometry" />
        </mxCell>
        <mxCell id="aipiy_HO2YyQXCgkY3Jp-10" value="" style="rounded=1;whiteSpace=wrap;html=1;fillColor=#79d9ce;strokeColor=none;shadow=1;glass=0;comic=0;gradientColor=none;" vertex="1" parent="1">
          <mxGeometry x="1090" y="1650" width="221" height="280" as="geometry" />
        </mxCell>
        <mxCell id="aipiy_HO2YyQXCgkY3Jp-11" value="chunk4" style="text;html=1;align=center;verticalAlign=middle;resizable=0;points=[];autosize=1;strokeColor=none;fillColor=none;fontSize=18;fontFamily=Times New Roman;fontColor=#000000;" vertex="1" parent="1">
          <mxGeometry x="1171" y="1610" width="70" height="30" as="geometry" />
        </mxCell>
        <mxCell id="aipiy_HO2YyQXCgkY3Jp-12" value="TRP1 QPS:200" style="rounded=1;whiteSpace=wrap;html=1;fillColor=#696773;strokeColor=none;shadow=1;glass=0;comic=0;gradientColor=none;fontFamily=Courier New;fontColor=#FFFFFF;" vertex="1" parent="1">
          <mxGeometry x="410" y="1733.5" width="120" height="40" as="geometry" />
        </mxCell>
        <mxCell id="aipiy_HO2YyQXCgkY3Jp-13" value="TRP1 QPS:500" style="rounded=1;whiteSpace=wrap;html=1;fillColor=#696773;strokeColor=none;shadow=1;glass=0;comic=0;gradientColor=none;fontFamily=Courier New;fontColor=#FFFFFF;" vertex="1" parent="1">
          <mxGeometry x="414" y="1800" width="120" height="40" as="geometry" />
        </mxCell>
        <mxCell id="aipiy_HO2YyQXCgkY3Jp-14" value="TRP1 QPS:600" style="rounded=1;whiteSpace=wrap;html=1;fillColor=#696773;strokeColor=none;shadow=1;glass=0;comic=0;gradientColor=none;fontFamily=Courier New;fontColor=#FFFFFF;" vertex="1" parent="1">
          <mxGeometry x="410" y="1870" width="120" height="40" as="geometry" />
        </mxCell>
        <mxCell id="aipiy_HO2YyQXCgkY3Jp-15" value="TRP1 QPS: 300" style="rounded=1;whiteSpace=wrap;html=1;fillColor=#696773;strokeColor=none;shadow=1;glass=0;comic=0;gradientColor=none;fontFamily=Courier New;fontColor=#FFFFFF;" vertex="1" parent="1">
          <mxGeometry x="660.5" y="1670" width="120" height="40" as="geometry" />
        </mxCell>
        <mxCell id="aipiy_HO2YyQXCgkY3Jp-16" value="TRP1 QPS: 300" style="rounded=1;whiteSpace=wrap;html=1;fillColor=#696773;strokeColor=none;shadow=1;glass=0;comic=0;gradientColor=none;fontFamily=Courier New;fontColor=#FFFFFF;" vertex="1" parent="1">
          <mxGeometry x="660.5" y="1733.5" width="120" height="40" as="geometry" />
        </mxCell>
        <mxCell id="aipiy_HO2YyQXCgkY3Jp-17" value="TRP1 QPS:400" style="rounded=1;whiteSpace=wrap;html=1;fillColor=#696773;strokeColor=none;shadow=1;glass=0;comic=0;gradientColor=none;fontFamily=Courier New;fontColor=#FFFFFF;" vertex="1" parent="1">
          <mxGeometry x="660.5" y="1800" width="120" height="40" as="geometry" />
        </mxCell>
        <mxCell id="aipiy_HO2YyQXCgkY3Jp-18" value="TRP1 QPS:500" style="rounded=1;whiteSpace=wrap;html=1;fillColor=#696773;strokeColor=none;shadow=1;glass=0;comic=0;gradientColor=none;fontFamily=Courier New;fontColor=#FFFFFF;" vertex="1" parent="1">
          <mxGeometry x="660.5" y="1870" width="120" height="40" as="geometry" />
        </mxCell>
        <mxCell id="aipiy_HO2YyQXCgkY3Jp-19" value="TRP1 QPS:300" style="rounded=1;whiteSpace=wrap;html=1;fillColor=#696773;strokeColor=none;shadow=1;glass=0;comic=0;gradientColor=none;fontFamily=Courier New;fontColor=#FFFFFF;" vertex="1" parent="1">
          <mxGeometry x="900.5" y="1670" width="120" height="40" as="geometry" />
        </mxCell>
        <mxCell id="aipiy_HO2YyQXCgkY3Jp-20" value="TRP1 QPS:400" style="rounded=1;whiteSpace=wrap;html=1;fillColor=#696773;strokeColor=none;shadow=1;glass=0;comic=0;gradientColor=none;fontFamily=Courier New;fontColor=#FFFFFF;" vertex="1" parent="1">
          <mxGeometry x="900.5" y="1734" width="120" height="40" as="geometry" />
        </mxCell>
        <mxCell id="aipiy_HO2YyQXCgkY3Jp-21" value="TRP1 QPS:400" style="rounded=1;whiteSpace=wrap;html=1;fillColor=#696773;strokeColor=none;shadow=1;glass=0;comic=0;gradientColor=none;fontFamily=Courier New;fontColor=#FFFFFF;" vertex="1" parent="1">
          <mxGeometry x="900.5" y="1800" width="120" height="40" as="geometry" />
        </mxCell>
        <mxCell id="aipiy_HO2YyQXCgkY3Jp-22" value="TRP1 QPS:500" style="rounded=1;whiteSpace=wrap;html=1;fillColor=#696773;strokeColor=none;shadow=1;glass=0;comic=0;gradientColor=none;fontFamily=Courier New;fontColor=#FFFFFF;" vertex="1" parent="1">
          <mxGeometry x="900.5" y="1870" width="120" height="40" as="geometry" />
        </mxCell>
        <mxCell id="aipiy_HO2YyQXCgkY3Jp-23" value="TRP1 QPS:400" style="rounded=1;whiteSpace=wrap;html=1;fillColor=#696773;strokeColor=none;shadow=1;glass=0;comic=0;gradientColor=none;fontFamily=Courier New;fontColor=#FFFFFF;" vertex="1" parent="1">
          <mxGeometry x="1130" y="1670" width="120" height="40" as="geometry" />
        </mxCell>
        <mxCell id="aipiy_HO2YyQXCgkY3Jp-24" value="TRP1 QPS:400" style="rounded=1;whiteSpace=wrap;html=1;fillColor=#696773;strokeColor=none;shadow=1;glass=0;comic=0;gradientColor=none;fontFamily=Courier New;fontColor=#FFFFFF;" vertex="1" parent="1">
          <mxGeometry x="1130" y="1733.5" width="120" height="40" as="geometry" />
        </mxCell>
        <mxCell id="aipiy_HO2YyQXCgkY3Jp-25" value="TRP1 QPS:400" style="rounded=1;whiteSpace=wrap;html=1;fillColor=#696773;strokeColor=none;shadow=1;glass=0;comic=0;gradientColor=none;fontFamily=Courier New;fontColor=#FFFFFF;" vertex="1" parent="1">
          <mxGeometry x="1130" y="1800" width="120" height="40" as="geometry" />
        </mxCell>
        <mxCell id="aipiy_HO2YyQXCgkY3Jp-26" value="TRP1 QPS: 500" style="rounded=1;whiteSpace=wrap;html=1;fillColor=#696773;strokeColor=none;shadow=1;glass=0;comic=0;gradientColor=none;fontFamily=Courier New;fontColor=#FFFFFF;" vertex="1" parent="1">
          <mxGeometry x="1130" y="1870" width="120" height="40" as="geometry" />
        </mxCell>
        <mxCell id="aipiy_HO2YyQXCgkY3Jp-27" value="" style="rounded=1;whiteSpace=wrap;html=1;fillColor=#eff1f3;strokeColor=none;shadow=0;glass=0;comic=0;gradientColor=none;fontFamily=Courier New;fontColor=#FFFFFF;" vertex="1" parent="1">
          <mxGeometry x="320" y="1590" width="1070" height="450" as="geometry" />
        </mxCell>
        <mxCell id="aipiy_HO2YyQXCgkY3Jp-28" value="" style="rounded=1;whiteSpace=wrap;html=1;fillColor=#79d9ce;strokeColor=none;shadow=1;glass=0;comic=0;gradientColor=none;" vertex="1" parent="1">
          <mxGeometry x="373.5" y="1660" width="221" height="280" as="geometry" />
        </mxCell>
        <mxCell id="aipiy_HO2YyQXCgkY3Jp-29" value="chunk1 QPS:1400" style="text;html=1;align=center;verticalAlign=middle;resizable=0;points=[];autosize=1;strokeColor=none;fillColor=none;fontSize=18;fontFamily=Times New Roman;fontColor=#000000;" vertex="1" parent="1">
          <mxGeometry x="405" y="1625" width="150" height="30" as="geometry" />
        </mxCell>
        <mxCell id="aipiy_HO2YyQXCgkY3Jp-30" value="" style="rounded=1;whiteSpace=wrap;html=1;fillColor=#79d9ce;strokeColor=none;shadow=1;glass=0;comic=0;gradientColor=none;" vertex="1" parent="1">
          <mxGeometry x="620" y="1660" width="221" height="280" as="geometry" />
        </mxCell>
        <mxCell id="aipiy_HO2YyQXCgkY3Jp-31" value="" style="rounded=1;whiteSpace=wrap;html=1;fillColor=#79d9ce;strokeColor=none;shadow=1;glass=0;comic=0;gradientColor=none;" vertex="1" parent="1">
          <mxGeometry x="860" y="1660" width="221" height="280" as="geometry" />
        </mxCell>
        <mxCell id="aipiy_HO2YyQXCgkY3Jp-32" value="chunk2 QPS:2800" style="text;html=1;align=center;verticalAlign=middle;resizable=0;points=[];autosize=1;strokeColor=none;fillColor=none;fontSize=18;fontFamily=Times New Roman;fontColor=#000000;" vertex="1" parent="1">
          <mxGeometry x="640" y="1620" width="150" height="30" as="geometry" />
        </mxCell>
        <mxCell id="aipiy_HO2YyQXCgkY3Jp-33" value="TRP1 QPS:100" style="rounded=1;whiteSpace=wrap;html=1;fillColor=#696773;strokeColor=none;shadow=1;glass=0;comic=0;gradientColor=none;fontFamily=Courier New;fontColor=#FFFFFF;" vertex="1" parent="1">
          <mxGeometry x="424" y="1680" width="120" height="40" as="geometry" />
        </mxCell>
        <mxCell id="aipiy_HO2YyQXCgkY3Jp-34" value="" style="rounded=1;whiteSpace=wrap;html=1;fillColor=#79d9ce;strokeColor=none;shadow=1;glass=0;comic=0;gradientColor=none;" vertex="1" parent="1">
          <mxGeometry x="1100" y="1660" width="221" height="280" as="geometry" />
        </mxCell>
        <mxCell id="aipiy_HO2YyQXCgkY3Jp-35" value="TRP2 QPS:200" style="rounded=1;whiteSpace=wrap;html=1;fillColor=#696773;strokeColor=none;shadow=1;glass=0;comic=0;gradientColor=none;fontFamily=Courier New;fontColor=#FFFFFF;" vertex="1" parent="1">
          <mxGeometry x="420" y="1743.5" width="120" height="40" as="geometry" />
        </mxCell>
        <mxCell id="aipiy_HO2YyQXCgkY3Jp-36" value="TRP3 QPS:500" style="rounded=1;whiteSpace=wrap;html=1;fillColor=#696773;strokeColor=none;shadow=1;glass=0;comic=0;gradientColor=none;fontFamily=Courier New;fontColor=#FFFFFF;" vertex="1" parent="1">
          <mxGeometry x="424" y="1810" width="120" height="40" as="geometry" />
        </mxCell>
        <mxCell id="aipiy_HO2YyQXCgkY3Jp-37" value="TRP4 QPS:600" style="rounded=1;whiteSpace=wrap;html=1;fillColor=#696773;strokeColor=none;shadow=1;glass=0;comic=0;gradientColor=none;fontFamily=Courier New;fontColor=#FFFFFF;" vertex="1" parent="1">
          <mxGeometry x="420" y="1880" width="120" height="40" as="geometry" />
        </mxCell>
        <mxCell id="aipiy_HO2YyQXCgkY3Jp-38" value="TRP5 QPS: 400" style="rounded=1;whiteSpace=wrap;html=1;fillColor=#696773;strokeColor=none;shadow=1;glass=0;comic=0;gradientColor=none;fontFamily=Courier New;fontColor=#FFFFFF;" vertex="1" parent="1">
          <mxGeometry x="670.5" y="1680" width="120" height="40" as="geometry" />
        </mxCell>
        <mxCell id="aipiy_HO2YyQXCgkY3Jp-39" value="TRP6 QPS: 700" style="rounded=1;whiteSpace=wrap;html=1;fillColor=#696773;strokeColor=none;shadow=1;glass=0;comic=0;gradientColor=none;fontFamily=Courier New;fontColor=#FFFFFF;" vertex="1" parent="1">
          <mxGeometry x="670.5" y="1743.5" width="120" height="40" as="geometry" />
        </mxCell>
        <mxCell id="aipiy_HO2YyQXCgkY3Jp-40" value="TRP7 QPS:800" style="rounded=1;whiteSpace=wrap;html=1;fillColor=#696773;strokeColor=none;shadow=1;glass=0;comic=0;gradientColor=none;fontFamily=Courier New;fontColor=#FFFFFF;" vertex="1" parent="1">
          <mxGeometry x="670.5" y="1810" width="120" height="40" as="geometry" />
        </mxCell>
        <mxCell id="aipiy_HO2YyQXCgkY3Jp-41" value="TRP8 QPS:900" style="rounded=1;whiteSpace=wrap;html=1;fillColor=#696773;strokeColor=none;shadow=1;glass=0;comic=0;gradientColor=none;fontFamily=Courier New;fontColor=#FFFFFF;" vertex="1" parent="1">
          <mxGeometry x="670.5" y="1880" width="120" height="40" as="geometry" />
        </mxCell>
        <mxCell id="aipiy_HO2YyQXCgkY3Jp-42" value="TRP9 QPS:200" style="rounded=1;whiteSpace=wrap;html=1;fillColor=#696773;strokeColor=none;shadow=1;glass=0;comic=0;gradientColor=none;fontFamily=Courier New;fontColor=#FFFFFF;" vertex="1" parent="1">
          <mxGeometry x="910.5" y="1680" width="120" height="40" as="geometry" />
        </mxCell>
        <mxCell id="aipiy_HO2YyQXCgkY3Jp-43" value="TRP10 QPS:500" style="rounded=1;whiteSpace=wrap;html=1;fillColor=#696773;strokeColor=none;shadow=1;glass=0;comic=0;gradientColor=none;fontFamily=Courier New;fontColor=#FFFFFF;" vertex="1" parent="1">
          <mxGeometry x="910.5" y="1744" width="120" height="40" as="geometry" />
        </mxCell>
        <mxCell id="aipiy_HO2YyQXCgkY3Jp-44" value="TRP11 QPS:700" style="rounded=1;whiteSpace=wrap;html=1;fillColor=#696773;strokeColor=none;shadow=1;glass=0;comic=0;gradientColor=none;fontFamily=Courier New;fontColor=#FFFFFF;" vertex="1" parent="1">
          <mxGeometry x="910.5" y="1810" width="120" height="40" as="geometry" />
        </mxCell>
        <mxCell id="aipiy_HO2YyQXCgkY3Jp-45" value="TRP12 QPS:1000" style="rounded=1;whiteSpace=wrap;html=1;fillColor=#696773;strokeColor=none;shadow=1;glass=0;comic=0;gradientColor=none;fontFamily=Courier New;fontColor=#FFFFFF;" vertex="1" parent="1">
          <mxGeometry x="910.5" y="1880" width="120" height="40" as="geometry" />
        </mxCell>
        <mxCell id="aipiy_HO2YyQXCgkY3Jp-46" value="TRP13 QPS:400" style="rounded=1;whiteSpace=wrap;html=1;fillColor=#696773;strokeColor=none;shadow=1;glass=0;comic=0;gradientColor=none;fontFamily=Courier New;fontColor=#FFFFFF;" vertex="1" parent="1">
          <mxGeometry x="1140" y="1680" width="120" height="40" as="geometry" />
        </mxCell>
        <mxCell id="aipiy_HO2YyQXCgkY3Jp-47" value="TRP14 QPS:400" style="rounded=1;whiteSpace=wrap;html=1;fillColor=#696773;strokeColor=none;shadow=1;glass=0;comic=0;gradientColor=none;fontFamily=Courier New;fontColor=#FFFFFF;" vertex="1" parent="1">
          <mxGeometry x="1140" y="1743.5" width="120" height="40" as="geometry" />
        </mxCell>
        <mxCell id="aipiy_HO2YyQXCgkY3Jp-48" value="TRP15 QPS:400" style="rounded=1;whiteSpace=wrap;html=1;fillColor=#696773;strokeColor=none;shadow=1;glass=0;comic=0;gradientColor=none;fontFamily=Courier New;fontColor=#FFFFFF;" vertex="1" parent="1">
          <mxGeometry x="1140" y="1810" width="120" height="40" as="geometry" />
        </mxCell>
        <mxCell id="aipiy_HO2YyQXCgkY3Jp-49" value="TRP16 QPS: 500" style="rounded=1;whiteSpace=wrap;html=1;fillColor=#696773;strokeColor=none;shadow=1;glass=0;comic=0;gradientColor=none;fontFamily=Courier New;fontColor=#FFFFFF;" vertex="1" parent="1">
          <mxGeometry x="1140" y="1880" width="120" height="40" as="geometry" />
        </mxCell>
        <mxCell id="aipiy_HO2YyQXCgkY3Jp-50" value="chunk3 QPS:2400" style="text;html=1;align=center;verticalAlign=middle;resizable=0;points=[];autosize=1;strokeColor=none;fillColor=none;fontSize=18;fontFamily=Times New Roman;fontColor=#000000;" vertex="1" parent="1">
          <mxGeometry x="890.5" y="1620" width="150" height="30" as="geometry" />
        </mxCell>
        <mxCell id="aipiy_HO2YyQXCgkY3Jp-51" value="chunk4 QPS:1700" style="text;html=1;align=center;verticalAlign=middle;resizable=0;points=[];autosize=1;strokeColor=none;fillColor=none;fontSize=18;fontFamily=Times New Roman;fontColor=#000000;" vertex="1" parent="1">
          <mxGeometry x="1130" y="1620" width="150" height="30" as="geometry" />
        </mxCell>
        <mxCell id="aipiy_HO2YyQXCgkY3Jp-52" value="&lt;font color=&quot;#ff00ff&quot; style=&quot;font-size: 24px&quot;&gt;AverageChunkQPS: 2075&amp;nbsp;&amp;nbsp;&lt;/font&gt;" style="text;html=1;align=center;verticalAlign=middle;resizable=0;points=[];autosize=1;strokeColor=none;fillColor=none;fontSize=18;fontFamily=Times New Roman;fontColor=#FFFFFF;" vertex="1" parent="1">
          <mxGeometry x="720" y="1970" width="280" height="30" as="geometry" />
        </mxCell>
        <mxCell id="aipiy_HO2YyQXCgkY3Jp-53" value="&lt;font color=&quot;#ff00ff&quot; style=&quot;font-size: 24px&quot;&gt;AverageChunkQPSUp: 2283&lt;/font&gt;" style="text;html=1;align=center;verticalAlign=middle;resizable=0;points=[];autosize=1;strokeColor=none;fillColor=none;fontSize=18;fontFamily=Times New Roman;fontColor=#FFFFFF;" vertex="1" parent="1">
          <mxGeometry x="1000" y="1970" width="290" height="30" as="geometry" />
        </mxCell>
        <mxCell id="aipiy_HO2YyQXCgkY3Jp-54" value="&lt;font color=&quot;#ff00ff&quot; style=&quot;font-size: 24px&quot;&gt;AverageChunkQPSDown: 1868&amp;nbsp;&amp;nbsp;&lt;/font&gt;" style="text;html=1;align=center;verticalAlign=middle;resizable=0;points=[];autosize=1;strokeColor=none;fillColor=none;fontSize=18;fontFamily=Times New Roman;fontColor=#FFFFFF;" vertex="1" parent="1">
          <mxGeometry x="400" y="1970" width="330" height="30" as="geometry" />
        </mxCell>
        <mxCell id="aipiy_HO2YyQXCgkY3Jp-55" value="" style="rounded=1;whiteSpace=wrap;html=1;fillColor=#79d9ce;strokeColor=none;shadow=1;glass=0;comic=0;gradientColor=none;" vertex="1" parent="1">
          <mxGeometry x="373.5" y="2200" width="221" height="280" as="geometry" />
        </mxCell>
        <mxCell id="aipiy_HO2YyQXCgkY3Jp-56" value="chunk1" style="text;html=1;align=center;verticalAlign=middle;resizable=0;points=[];autosize=1;strokeColor=none;fillColor=none;fontSize=18;fontFamily=Times New Roman;fontColor=#000000;" vertex="1" parent="1">
          <mxGeometry x="445" y="2165" width="70" height="30" as="geometry" />
        </mxCell>
        <mxCell id="aipiy_HO2YyQXCgkY3Jp-57" value="" style="rounded=1;whiteSpace=wrap;html=1;fillColor=#79d9ce;strokeColor=none;shadow=1;glass=0;comic=0;gradientColor=none;" vertex="1" parent="1">
          <mxGeometry x="620" y="2200" width="221" height="280" as="geometry" />
        </mxCell>
        <mxCell id="aipiy_HO2YyQXCgkY3Jp-58" value="" style="rounded=1;whiteSpace=wrap;html=1;fillColor=#79d9ce;strokeColor=none;shadow=1;glass=0;comic=0;gradientColor=none;" vertex="1" parent="1">
          <mxGeometry x="860" y="2200" width="221" height="280" as="geometry" />
        </mxCell>
        <mxCell id="aipiy_HO2YyQXCgkY3Jp-59" value="chunk2" style="text;html=1;align=center;verticalAlign=middle;resizable=0;points=[];autosize=1;strokeColor=none;fillColor=none;fontSize=18;fontFamily=Times New Roman;fontColor=#000000;" vertex="1" parent="1">
          <mxGeometry x="680" y="2160" width="70" height="30" as="geometry" />
        </mxCell>
        <mxCell id="aipiy_HO2YyQXCgkY3Jp-60" value="chunk3" style="text;html=1;align=center;verticalAlign=middle;resizable=0;points=[];autosize=1;strokeColor=none;fillColor=none;fontSize=18;fontFamily=Times New Roman;fontColor=#000000;" vertex="1" parent="1">
          <mxGeometry x="935.5" y="2160" width="70" height="30" as="geometry" />
        </mxCell>
        <mxCell id="aipiy_HO2YyQXCgkY3Jp-61" value="TRP1 QPS:100" style="rounded=1;whiteSpace=wrap;html=1;fillColor=#696773;strokeColor=none;shadow=1;glass=0;comic=0;gradientColor=none;fontFamily=Courier New;fontColor=#FFFFFF;" vertex="1" parent="1">
          <mxGeometry x="424" y="2220" width="120" height="40" as="geometry" />
        </mxCell>
        <mxCell id="aipiy_HO2YyQXCgkY3Jp-62" value="" style="rounded=1;whiteSpace=wrap;html=1;fillColor=#79d9ce;strokeColor=none;shadow=1;glass=0;comic=0;gradientColor=none;" vertex="1" parent="1">
          <mxGeometry x="1100" y="2200" width="221" height="280" as="geometry" />
        </mxCell>
        <mxCell id="aipiy_HO2YyQXCgkY3Jp-63" value="chunk4" style="text;html=1;align=center;verticalAlign=middle;resizable=0;points=[];autosize=1;strokeColor=none;fillColor=none;fontSize=18;fontFamily=Times New Roman;fontColor=#000000;" vertex="1" parent="1">
          <mxGeometry x="1181" y="2160" width="70" height="30" as="geometry" />
        </mxCell>
        <mxCell id="aipiy_HO2YyQXCgkY3Jp-64" value="TRP1 QPS:200" style="rounded=1;whiteSpace=wrap;html=1;fillColor=#696773;strokeColor=none;shadow=1;glass=0;comic=0;gradientColor=none;fontFamily=Courier New;fontColor=#FFFFFF;" vertex="1" parent="1">
          <mxGeometry x="420" y="2283.5" width="120" height="40" as="geometry" />
        </mxCell>
        <mxCell id="aipiy_HO2YyQXCgkY3Jp-65" value="TRP1 QPS:500" style="rounded=1;whiteSpace=wrap;html=1;fillColor=#696773;strokeColor=none;shadow=1;glass=0;comic=0;gradientColor=none;fontFamily=Courier New;fontColor=#FFFFFF;" vertex="1" parent="1">
          <mxGeometry x="424" y="2350" width="120" height="40" as="geometry" />
        </mxCell>
        <mxCell id="aipiy_HO2YyQXCgkY3Jp-66" value="TRP1 QPS:600" style="rounded=1;whiteSpace=wrap;html=1;fillColor=#696773;strokeColor=none;shadow=1;glass=0;comic=0;gradientColor=none;fontFamily=Courier New;fontColor=#FFFFFF;" vertex="1" parent="1">
          <mxGeometry x="420" y="2420" width="120" height="40" as="geometry" />
        </mxCell>
        <mxCell id="aipiy_HO2YyQXCgkY3Jp-67" value="TRP1 QPS: 300" style="rounded=1;whiteSpace=wrap;html=1;fillColor=#696773;strokeColor=none;shadow=1;glass=0;comic=0;gradientColor=none;fontFamily=Courier New;fontColor=#FFFFFF;" vertex="1" parent="1">
          <mxGeometry x="670.5" y="2220" width="120" height="40" as="geometry" />
        </mxCell>
        <mxCell id="aipiy_HO2YyQXCgkY3Jp-68" value="TRP1 QPS: 300" style="rounded=1;whiteSpace=wrap;html=1;fillColor=#696773;strokeColor=none;shadow=1;glass=0;comic=0;gradientColor=none;fontFamily=Courier New;fontColor=#FFFFFF;" vertex="1" parent="1">
          <mxGeometry x="670.5" y="2283.5" width="120" height="40" as="geometry" />
        </mxCell>
        <mxCell id="aipiy_HO2YyQXCgkY3Jp-69" value="TRP1 QPS:400" style="rounded=1;whiteSpace=wrap;html=1;fillColor=#696773;strokeColor=none;shadow=1;glass=0;comic=0;gradientColor=none;fontFamily=Courier New;fontColor=#FFFFFF;" vertex="1" parent="1">
          <mxGeometry x="670.5" y="2350" width="120" height="40" as="geometry" />
        </mxCell>
        <mxCell id="aipiy_HO2YyQXCgkY3Jp-70" value="TRP1 QPS:500" style="rounded=1;whiteSpace=wrap;html=1;fillColor=#696773;strokeColor=none;shadow=1;glass=0;comic=0;gradientColor=none;fontFamily=Courier New;fontColor=#FFFFFF;" vertex="1" parent="1">
          <mxGeometry x="670.5" y="2420" width="120" height="40" as="geometry" />
        </mxCell>
        <mxCell id="aipiy_HO2YyQXCgkY3Jp-71" value="TRP1 QPS:300" style="rounded=1;whiteSpace=wrap;html=1;fillColor=#696773;strokeColor=none;shadow=1;glass=0;comic=0;gradientColor=none;fontFamily=Courier New;fontColor=#FFFFFF;" vertex="1" parent="1">
          <mxGeometry x="910.5" y="2220" width="120" height="40" as="geometry" />
        </mxCell>
        <mxCell id="aipiy_HO2YyQXCgkY3Jp-72" value="TRP1 QPS:400" style="rounded=1;whiteSpace=wrap;html=1;fillColor=#696773;strokeColor=none;shadow=1;glass=0;comic=0;gradientColor=none;fontFamily=Courier New;fontColor=#FFFFFF;" vertex="1" parent="1">
          <mxGeometry x="910.5" y="2284" width="120" height="40" as="geometry" />
        </mxCell>
        <mxCell id="aipiy_HO2YyQXCgkY3Jp-73" value="TRP1 QPS:400" style="rounded=1;whiteSpace=wrap;html=1;fillColor=#696773;strokeColor=none;shadow=1;glass=0;comic=0;gradientColor=none;fontFamily=Courier New;fontColor=#FFFFFF;" vertex="1" parent="1">
          <mxGeometry x="910.5" y="2350" width="120" height="40" as="geometry" />
        </mxCell>
        <mxCell id="aipiy_HO2YyQXCgkY3Jp-74" value="TRP1 QPS:500" style="rounded=1;whiteSpace=wrap;html=1;fillColor=#696773;strokeColor=none;shadow=1;glass=0;comic=0;gradientColor=none;fontFamily=Courier New;fontColor=#FFFFFF;" vertex="1" parent="1">
          <mxGeometry x="910.5" y="2420" width="120" height="40" as="geometry" />
        </mxCell>
        <mxCell id="aipiy_HO2YyQXCgkY3Jp-75" value="TRP1 QPS:400" style="rounded=1;whiteSpace=wrap;html=1;fillColor=#696773;strokeColor=none;shadow=1;glass=0;comic=0;gradientColor=none;fontFamily=Courier New;fontColor=#FFFFFF;" vertex="1" parent="1">
          <mxGeometry x="1140" y="2220" width="120" height="40" as="geometry" />
        </mxCell>
        <mxCell id="aipiy_HO2YyQXCgkY3Jp-76" value="TRP1 QPS:400" style="rounded=1;whiteSpace=wrap;html=1;fillColor=#696773;strokeColor=none;shadow=1;glass=0;comic=0;gradientColor=none;fontFamily=Courier New;fontColor=#FFFFFF;" vertex="1" parent="1">
          <mxGeometry x="1140" y="2283.5" width="120" height="40" as="geometry" />
        </mxCell>
        <mxCell id="aipiy_HO2YyQXCgkY3Jp-77" value="TRP1 QPS:400" style="rounded=1;whiteSpace=wrap;html=1;fillColor=#696773;strokeColor=none;shadow=1;glass=0;comic=0;gradientColor=none;fontFamily=Courier New;fontColor=#FFFFFF;" vertex="1" parent="1">
          <mxGeometry x="1140" y="2350" width="120" height="40" as="geometry" />
        </mxCell>
        <mxCell id="aipiy_HO2YyQXCgkY3Jp-78" value="TRP1 QPS: 500" style="rounded=1;whiteSpace=wrap;html=1;fillColor=#696773;strokeColor=none;shadow=1;glass=0;comic=0;gradientColor=none;fontFamily=Courier New;fontColor=#FFFFFF;" vertex="1" parent="1">
          <mxGeometry x="1140" y="2420" width="120" height="40" as="geometry" />
        </mxCell>
        <mxCell id="aipiy_HO2YyQXCgkY3Jp-79" value="" style="rounded=1;whiteSpace=wrap;html=1;fillColor=#eff1f3;strokeColor=none;shadow=0;glass=0;comic=0;gradientColor=none;fontFamily=Courier New;fontColor=#FFFFFF;" vertex="1" parent="1">
          <mxGeometry x="330" y="2140" width="1070" height="450" as="geometry" />
        </mxCell>
        <mxCell id="aipiy_HO2YyQXCgkY3Jp-80" value="" style="rounded=1;whiteSpace=wrap;html=1;fillColor=#79d9ce;strokeColor=none;shadow=1;glass=0;comic=0;gradientColor=none;" vertex="1" parent="1">
          <mxGeometry x="383.5" y="2210" width="221" height="280" as="geometry" />
        </mxCell>
        <mxCell id="aipiy_HO2YyQXCgkY3Jp-81" value="chunk1 QPS:1400" style="text;html=1;align=center;verticalAlign=middle;resizable=0;points=[];autosize=1;strokeColor=none;fillColor=none;fontSize=18;fontFamily=Times New Roman;fontColor=#000000;" vertex="1" parent="1">
          <mxGeometry x="415" y="2175" width="150" height="30" as="geometry" />
        </mxCell>
        <mxCell id="aipiy_HO2YyQXCgkY3Jp-82" value="" style="rounded=1;whiteSpace=wrap;html=1;fillColor=#79d9ce;strokeColor=none;shadow=1;glass=0;comic=0;gradientColor=none;" vertex="1" parent="1">
          <mxGeometry x="630" y="2210" width="221" height="280" as="geometry" />
        </mxCell>
        <mxCell id="aipiy_HO2YyQXCgkY3Jp-83" value="" style="rounded=1;whiteSpace=wrap;html=1;fillColor=#79d9ce;strokeColor=none;shadow=1;glass=0;comic=0;gradientColor=none;" vertex="1" parent="1">
          <mxGeometry x="870" y="2210" width="221" height="280" as="geometry" />
        </mxCell>
        <mxCell id="aipiy_HO2YyQXCgkY3Jp-84" value="chunk2 QPS:2800" style="text;html=1;align=center;verticalAlign=middle;resizable=0;points=[];autosize=1;strokeColor=none;fillColor=none;fontSize=18;fontFamily=Times New Roman;fontColor=#000000;" vertex="1" parent="1">
          <mxGeometry x="650" y="2170" width="150" height="30" as="geometry" />
        </mxCell>
        <mxCell id="aipiy_HO2YyQXCgkY3Jp-85" value="TRP1 QPS:100" style="rounded=1;whiteSpace=wrap;html=1;fillColor=#696773;strokeColor=none;shadow=1;glass=0;comic=0;gradientColor=none;fontFamily=Courier New;fontColor=#FFFFFF;" vertex="1" parent="1">
          <mxGeometry x="434" y="2230" width="120" height="40" as="geometry" />
        </mxCell>
        <mxCell id="aipiy_HO2YyQXCgkY3Jp-86" value="" style="rounded=1;whiteSpace=wrap;html=1;fillColor=#79d9ce;strokeColor=none;shadow=1;glass=0;comic=0;gradientColor=none;" vertex="1" parent="1">
          <mxGeometry x="1110" y="2210" width="221" height="280" as="geometry" />
        </mxCell>
        <mxCell id="aipiy_HO2YyQXCgkY3Jp-87" value="TRP2 QPS:200" style="rounded=1;whiteSpace=wrap;html=1;fillColor=#696773;strokeColor=none;shadow=1;glass=0;comic=0;gradientColor=none;fontFamily=Courier New;fontColor=#FFFFFF;" vertex="1" parent="1">
          <mxGeometry x="430" y="2293.5" width="120" height="40" as="geometry" />
        </mxCell>
        <mxCell id="aipiy_HO2YyQXCgkY3Jp-88" value="TRP3 QPS:500" style="rounded=1;whiteSpace=wrap;html=1;fillColor=#696773;strokeColor=none;shadow=1;glass=0;comic=0;gradientColor=none;fontFamily=Courier New;fontColor=#FFFFFF;" vertex="1" parent="1">
          <mxGeometry x="434" y="2360" width="120" height="40" as="geometry" />
        </mxCell>
        <mxCell id="aipiy_HO2YyQXCgkY3Jp-89" value="TRP4 QPS:600" style="rounded=1;whiteSpace=wrap;html=1;fillColor=#696773;strokeColor=none;shadow=1;glass=0;comic=0;gradientColor=none;fontFamily=Courier New;fontColor=#FFFFFF;" vertex="1" parent="1">
          <mxGeometry x="430" y="2430" width="120" height="40" as="geometry" />
        </mxCell>
        <mxCell id="aipiy_HO2YyQXCgkY3Jp-90" value="TRP5 QPS: 400" style="rounded=1;whiteSpace=wrap;html=1;fillColor=#696773;strokeColor=none;shadow=1;glass=0;comic=0;gradientColor=none;fontFamily=Courier New;fontColor=#FFFFFF;" vertex="1" parent="1">
          <mxGeometry x="680.5" y="2230" width="120" height="40" as="geometry" />
        </mxCell>
        <mxCell id="aipiy_HO2YyQXCgkY3Jp-91" value="TRP6 QPS: 700" style="rounded=1;whiteSpace=wrap;html=1;fillColor=#696773;strokeColor=none;shadow=1;glass=0;comic=0;gradientColor=none;fontFamily=Courier New;fontColor=#FFFFFF;" vertex="1" parent="1">
          <mxGeometry x="680.5" y="2293.5" width="120" height="40" as="geometry" />
        </mxCell>
        <mxCell id="aipiy_HO2YyQXCgkY3Jp-92" value="TRP7 QPS:800" style="rounded=1;whiteSpace=wrap;html=1;fillColor=#696773;strokeColor=none;shadow=1;glass=0;comic=0;gradientColor=none;fontFamily=Courier New;fontColor=#FFFFFF;" vertex="1" parent="1">
          <mxGeometry x="680.5" y="2360" width="120" height="40" as="geometry" />
        </mxCell>
        <mxCell id="aipiy_HO2YyQXCgkY3Jp-93" value="TRP8 QPS:900" style="rounded=1;whiteSpace=wrap;html=1;fillColor=#696773;strokeColor=none;shadow=1;glass=0;comic=0;gradientColor=none;fontFamily=Courier New;fontColor=#FFFFFF;" vertex="1" parent="1">
          <mxGeometry x="680.5" y="2430" width="120" height="40" as="geometry" />
        </mxCell>
        <mxCell id="aipiy_HO2YyQXCgkY3Jp-94" value="TRP9 QPS:200" style="rounded=1;whiteSpace=wrap;html=1;fillColor=#696773;strokeColor=none;shadow=1;glass=0;comic=0;gradientColor=none;fontFamily=Courier New;fontColor=#FFFFFF;" vertex="1" parent="1">
          <mxGeometry x="920.5" y="2230" width="120" height="40" as="geometry" />
        </mxCell>
        <mxCell id="aipiy_HO2YyQXCgkY3Jp-95" value="TRP10 QPS:500" style="rounded=1;whiteSpace=wrap;html=1;fillColor=#696773;strokeColor=none;shadow=1;glass=0;comic=0;gradientColor=none;fontFamily=Courier New;fontColor=#FFFFFF;" vertex="1" parent="1">
          <mxGeometry x="920.5" y="2294" width="120" height="40" as="geometry" />
        </mxCell>
        <mxCell id="aipiy_HO2YyQXCgkY3Jp-96" value="TRP11 QPS:700" style="rounded=1;whiteSpace=wrap;html=1;fillColor=#696773;strokeColor=none;shadow=1;glass=0;comic=0;gradientColor=none;fontFamily=Courier New;fontColor=#FFFFFF;" vertex="1" parent="1">
          <mxGeometry x="920.5" y="2360" width="120" height="40" as="geometry" />
        </mxCell>
        <mxCell id="aipiy_HO2YyQXCgkY3Jp-97" value="TRP12 QPS:1000" style="rounded=1;whiteSpace=wrap;html=1;fillColor=#696773;strokeColor=none;shadow=1;glass=0;comic=0;gradientColor=none;fontFamily=Courier New;fontColor=#FFFFFF;" vertex="1" parent="1">
          <mxGeometry x="920.5" y="2430" width="120" height="40" as="geometry" />
        </mxCell>
        <mxCell id="aipiy_HO2YyQXCgkY3Jp-98" value="TRP13 QPS:400" style="rounded=1;whiteSpace=wrap;html=1;fillColor=#696773;strokeColor=none;shadow=1;glass=0;comic=0;gradientColor=none;fontFamily=Courier New;fontColor=#FFFFFF;" vertex="1" parent="1">
          <mxGeometry x="1150" y="2230" width="120" height="40" as="geometry" />
        </mxCell>
        <mxCell id="aipiy_HO2YyQXCgkY3Jp-99" value="TRP14 QPS:400" style="rounded=1;whiteSpace=wrap;html=1;fillColor=#696773;strokeColor=none;shadow=1;glass=0;comic=0;gradientColor=none;fontFamily=Courier New;fontColor=#FFFFFF;" vertex="1" parent="1">
          <mxGeometry x="1150" y="2293.5" width="120" height="40" as="geometry" />
        </mxCell>
        <mxCell id="aipiy_HO2YyQXCgkY3Jp-100" value="TRP15 QPS:400" style="rounded=1;whiteSpace=wrap;html=1;fillColor=#696773;strokeColor=none;shadow=1;glass=0;comic=0;gradientColor=none;fontFamily=Courier New;fontColor=#FFFFFF;" vertex="1" parent="1">
          <mxGeometry x="1150" y="2360" width="120" height="40" as="geometry" />
        </mxCell>
        <mxCell id="aipiy_HO2YyQXCgkY3Jp-101" value="TRP16 QPS: 500" style="rounded=1;whiteSpace=wrap;html=1;fillColor=#696773;strokeColor=none;shadow=1;glass=0;comic=0;gradientColor=none;fontFamily=Courier New;fontColor=#FFFFFF;" vertex="1" parent="1">
          <mxGeometry x="1150" y="2430" width="120" height="40" as="geometry" />
        </mxCell>
        <mxCell id="aipiy_HO2YyQXCgkY3Jp-102" value="chunk3 QPS:2400" style="text;html=1;align=center;verticalAlign=middle;resizable=0;points=[];autosize=1;strokeColor=none;fillColor=none;fontSize=18;fontFamily=Times New Roman;fontColor=#000000;" vertex="1" parent="1">
          <mxGeometry x="900.5" y="2170" width="150" height="30" as="geometry" />
        </mxCell>
        <mxCell id="aipiy_HO2YyQXCgkY3Jp-103" value="chunk4 QPS:1700" style="text;html=1;align=center;verticalAlign=middle;resizable=0;points=[];autosize=1;strokeColor=none;fillColor=none;fontSize=18;fontFamily=Times New Roman;fontColor=#000000;" vertex="1" parent="1">
          <mxGeometry x="1140" y="2170" width="150" height="30" as="geometry" />
        </mxCell>
        <mxCell id="aipiy_HO2YyQXCgkY3Jp-104" value="&lt;font color=&quot;#ff00ff&quot; style=&quot;font-size: 24px&quot;&gt;AverageChunkQPS: 2075&amp;nbsp;&amp;nbsp;&lt;/font&gt;" style="text;html=1;align=center;verticalAlign=middle;resizable=0;points=[];autosize=1;strokeColor=none;fillColor=none;fontSize=18;fontFamily=Times New Roman;fontColor=#FFFFFF;" vertex="1" parent="1">
          <mxGeometry x="730" y="2520" width="280" height="30" as="geometry" />
        </mxCell>
        <mxCell id="aipiy_HO2YyQXCgkY3Jp-105" value="&lt;font color=&quot;#ff00ff&quot; style=&quot;font-size: 24px&quot;&gt;AverageChunkQPSUp: 2283&lt;/font&gt;" style="text;html=1;align=center;verticalAlign=middle;resizable=0;points=[];autosize=1;strokeColor=none;fillColor=none;fontSize=18;fontFamily=Times New Roman;fontColor=#FFFFFF;" vertex="1" parent="1">
          <mxGeometry x="1010" y="2520" width="290" height="30" as="geometry" />
        </mxCell>
        <mxCell id="aipiy_HO2YyQXCgkY3Jp-106" value="&lt;font color=&quot;#ff00ff&quot; style=&quot;font-size: 24px&quot;&gt;AverageChunkQPSDown: 1868&amp;nbsp;&amp;nbsp;&lt;/font&gt;" style="text;html=1;align=center;verticalAlign=middle;resizable=0;points=[];autosize=1;strokeColor=none;fillColor=none;fontSize=18;fontFamily=Times New Roman;fontColor=#FFFFFF;" vertex="1" parent="1">
          <mxGeometry x="410" y="2520" width="330" height="30" as="geometry" />
        </mxCell>
      </root>
    </mxGraphModel>
  </diagram>
  <diagram id="DmDHyw2xqlQ88rmpxhbH" name="case2">
    <mxGraphModel dx="1351" dy="-408" grid="1" gridSize="10" guides="1" tooltips="1" connect="1" arrows="1" fold="1" page="1" pageScale="1" pageWidth="827" pageHeight="1169" math="0" shadow="0">
      <root>
        <mxCell id="ZhET5mZ9b83PnPrSQOGt-0" />
        <mxCell id="ZhET5mZ9b83PnPrSQOGt-1" parent="ZhET5mZ9b83PnPrSQOGt-0" />
        <mxCell id="WKHbW0rFje34zPn7IEfF-0" value="" style="rounded=1;whiteSpace=wrap;html=1;fillColor=#79d9ce;strokeColor=none;shadow=1;glass=0;comic=0;gradientColor=none;" vertex="1" parent="ZhET5mZ9b83PnPrSQOGt-1">
          <mxGeometry x="363.5" y="1650" width="221" height="280" as="geometry" />
        </mxCell>
        <mxCell id="WKHbW0rFje34zPn7IEfF-1" value="chunk1" style="text;html=1;align=center;verticalAlign=middle;resizable=0;points=[];autosize=1;strokeColor=none;fillColor=none;fontSize=18;fontFamily=Times New Roman;fontColor=#000000;" vertex="1" parent="ZhET5mZ9b83PnPrSQOGt-1">
          <mxGeometry x="435" y="1615" width="70" height="30" as="geometry" />
        </mxCell>
        <mxCell id="WKHbW0rFje34zPn7IEfF-2" value="" style="rounded=1;whiteSpace=wrap;html=1;fillColor=#79d9ce;strokeColor=none;shadow=1;glass=0;comic=0;gradientColor=none;" vertex="1" parent="ZhET5mZ9b83PnPrSQOGt-1">
          <mxGeometry x="610" y="1650" width="221" height="280" as="geometry" />
        </mxCell>
        <mxCell id="WKHbW0rFje34zPn7IEfF-3" value="" style="rounded=1;whiteSpace=wrap;html=1;fillColor=#79d9ce;strokeColor=none;shadow=1;glass=0;comic=0;gradientColor=none;" vertex="1" parent="ZhET5mZ9b83PnPrSQOGt-1">
          <mxGeometry x="850" y="1650" width="221" height="280" as="geometry" />
        </mxCell>
        <mxCell id="WKHbW0rFje34zPn7IEfF-4" value="chunk2" style="text;html=1;align=center;verticalAlign=middle;resizable=0;points=[];autosize=1;strokeColor=none;fillColor=none;fontSize=18;fontFamily=Times New Roman;fontColor=#000000;" vertex="1" parent="ZhET5mZ9b83PnPrSQOGt-1">
          <mxGeometry x="670" y="1610" width="70" height="30" as="geometry" />
        </mxCell>
        <mxCell id="WKHbW0rFje34zPn7IEfF-5" value="chunk3" style="text;html=1;align=center;verticalAlign=middle;resizable=0;points=[];autosize=1;strokeColor=none;fillColor=none;fontSize=18;fontFamily=Times New Roman;fontColor=#000000;" vertex="1" parent="ZhET5mZ9b83PnPrSQOGt-1">
          <mxGeometry x="925.5" y="1610" width="70" height="30" as="geometry" />
        </mxCell>
        <mxCell id="WKHbW0rFje34zPn7IEfF-6" value="TRP1 QPS:100" style="rounded=1;whiteSpace=wrap;html=1;fillColor=#696773;strokeColor=none;shadow=1;glass=0;comic=0;gradientColor=none;fontFamily=Courier New;fontColor=#FFFFFF;" vertex="1" parent="ZhET5mZ9b83PnPrSQOGt-1">
          <mxGeometry x="414" y="1670" width="120" height="40" as="geometry" />
        </mxCell>
        <mxCell id="WKHbW0rFje34zPn7IEfF-7" value="" style="rounded=1;whiteSpace=wrap;html=1;fillColor=#79d9ce;strokeColor=none;shadow=1;glass=0;comic=0;gradientColor=none;" vertex="1" parent="ZhET5mZ9b83PnPrSQOGt-1">
          <mxGeometry x="1090" y="1650" width="221" height="280" as="geometry" />
        </mxCell>
        <mxCell id="WKHbW0rFje34zPn7IEfF-8" value="chunk4" style="text;html=1;align=center;verticalAlign=middle;resizable=0;points=[];autosize=1;strokeColor=none;fillColor=none;fontSize=18;fontFamily=Times New Roman;fontColor=#000000;" vertex="1" parent="ZhET5mZ9b83PnPrSQOGt-1">
          <mxGeometry x="1171" y="1610" width="70" height="30" as="geometry" />
        </mxCell>
        <mxCell id="WKHbW0rFje34zPn7IEfF-9" value="TRP1 QPS:200" style="rounded=1;whiteSpace=wrap;html=1;fillColor=#696773;strokeColor=none;shadow=1;glass=0;comic=0;gradientColor=none;fontFamily=Courier New;fontColor=#FFFFFF;" vertex="1" parent="ZhET5mZ9b83PnPrSQOGt-1">
          <mxGeometry x="410" y="1733.5" width="120" height="40" as="geometry" />
        </mxCell>
        <mxCell id="WKHbW0rFje34zPn7IEfF-10" value="TRP1 QPS:500" style="rounded=1;whiteSpace=wrap;html=1;fillColor=#696773;strokeColor=none;shadow=1;glass=0;comic=0;gradientColor=none;fontFamily=Courier New;fontColor=#FFFFFF;" vertex="1" parent="ZhET5mZ9b83PnPrSQOGt-1">
          <mxGeometry x="414" y="1800" width="120" height="40" as="geometry" />
        </mxCell>
        <mxCell id="WKHbW0rFje34zPn7IEfF-11" value="TRP1 QPS:600" style="rounded=1;whiteSpace=wrap;html=1;fillColor=#696773;strokeColor=none;shadow=1;glass=0;comic=0;gradientColor=none;fontFamily=Courier New;fontColor=#FFFFFF;" vertex="1" parent="ZhET5mZ9b83PnPrSQOGt-1">
          <mxGeometry x="410" y="1870" width="120" height="40" as="geometry" />
        </mxCell>
        <mxCell id="WKHbW0rFje34zPn7IEfF-12" value="TRP1 QPS: 300" style="rounded=1;whiteSpace=wrap;html=1;fillColor=#696773;strokeColor=none;shadow=1;glass=0;comic=0;gradientColor=none;fontFamily=Courier New;fontColor=#FFFFFF;" vertex="1" parent="ZhET5mZ9b83PnPrSQOGt-1">
          <mxGeometry x="660.5" y="1670" width="120" height="40" as="geometry" />
        </mxCell>
        <mxCell id="WKHbW0rFje34zPn7IEfF-13" value="TRP1 QPS: 300" style="rounded=1;whiteSpace=wrap;html=1;fillColor=#696773;strokeColor=none;shadow=1;glass=0;comic=0;gradientColor=none;fontFamily=Courier New;fontColor=#FFFFFF;" vertex="1" parent="ZhET5mZ9b83PnPrSQOGt-1">
          <mxGeometry x="660.5" y="1733.5" width="120" height="40" as="geometry" />
        </mxCell>
        <mxCell id="WKHbW0rFje34zPn7IEfF-14" value="TRP1 QPS:400" style="rounded=1;whiteSpace=wrap;html=1;fillColor=#696773;strokeColor=none;shadow=1;glass=0;comic=0;gradientColor=none;fontFamily=Courier New;fontColor=#FFFFFF;" vertex="1" parent="ZhET5mZ9b83PnPrSQOGt-1">
          <mxGeometry x="660.5" y="1800" width="120" height="40" as="geometry" />
        </mxCell>
        <mxCell id="WKHbW0rFje34zPn7IEfF-15" value="TRP1 QPS:500" style="rounded=1;whiteSpace=wrap;html=1;fillColor=#696773;strokeColor=none;shadow=1;glass=0;comic=0;gradientColor=none;fontFamily=Courier New;fontColor=#FFFFFF;" vertex="1" parent="ZhET5mZ9b83PnPrSQOGt-1">
          <mxGeometry x="660.5" y="1870" width="120" height="40" as="geometry" />
        </mxCell>
        <mxCell id="WKHbW0rFje34zPn7IEfF-16" value="TRP1 QPS:300" style="rounded=1;whiteSpace=wrap;html=1;fillColor=#696773;strokeColor=none;shadow=1;glass=0;comic=0;gradientColor=none;fontFamily=Courier New;fontColor=#FFFFFF;" vertex="1" parent="ZhET5mZ9b83PnPrSQOGt-1">
          <mxGeometry x="900.5" y="1670" width="120" height="40" as="geometry" />
        </mxCell>
        <mxCell id="WKHbW0rFje34zPn7IEfF-17" value="TRP1 QPS:400" style="rounded=1;whiteSpace=wrap;html=1;fillColor=#696773;strokeColor=none;shadow=1;glass=0;comic=0;gradientColor=none;fontFamily=Courier New;fontColor=#FFFFFF;" vertex="1" parent="ZhET5mZ9b83PnPrSQOGt-1">
          <mxGeometry x="900.5" y="1734" width="120" height="40" as="geometry" />
        </mxCell>
        <mxCell id="WKHbW0rFje34zPn7IEfF-18" value="TRP1 QPS:400" style="rounded=1;whiteSpace=wrap;html=1;fillColor=#696773;strokeColor=none;shadow=1;glass=0;comic=0;gradientColor=none;fontFamily=Courier New;fontColor=#FFFFFF;" vertex="1" parent="ZhET5mZ9b83PnPrSQOGt-1">
          <mxGeometry x="900.5" y="1800" width="120" height="40" as="geometry" />
        </mxCell>
        <mxCell id="WKHbW0rFje34zPn7IEfF-19" value="TRP1 QPS:500" style="rounded=1;whiteSpace=wrap;html=1;fillColor=#696773;strokeColor=none;shadow=1;glass=0;comic=0;gradientColor=none;fontFamily=Courier New;fontColor=#FFFFFF;" vertex="1" parent="ZhET5mZ9b83PnPrSQOGt-1">
          <mxGeometry x="900.5" y="1870" width="120" height="40" as="geometry" />
        </mxCell>
        <mxCell id="WKHbW0rFje34zPn7IEfF-20" value="TRP1 QPS:400" style="rounded=1;whiteSpace=wrap;html=1;fillColor=#696773;strokeColor=none;shadow=1;glass=0;comic=0;gradientColor=none;fontFamily=Courier New;fontColor=#FFFFFF;" vertex="1" parent="ZhET5mZ9b83PnPrSQOGt-1">
          <mxGeometry x="1130" y="1670" width="120" height="40" as="geometry" />
        </mxCell>
        <mxCell id="WKHbW0rFje34zPn7IEfF-21" value="TRP1 QPS:400" style="rounded=1;whiteSpace=wrap;html=1;fillColor=#696773;strokeColor=none;shadow=1;glass=0;comic=0;gradientColor=none;fontFamily=Courier New;fontColor=#FFFFFF;" vertex="1" parent="ZhET5mZ9b83PnPrSQOGt-1">
          <mxGeometry x="1130" y="1733.5" width="120" height="40" as="geometry" />
        </mxCell>
        <mxCell id="WKHbW0rFje34zPn7IEfF-22" value="TRP1 QPS:400" style="rounded=1;whiteSpace=wrap;html=1;fillColor=#696773;strokeColor=none;shadow=1;glass=0;comic=0;gradientColor=none;fontFamily=Courier New;fontColor=#FFFFFF;" vertex="1" parent="ZhET5mZ9b83PnPrSQOGt-1">
          <mxGeometry x="1130" y="1800" width="120" height="40" as="geometry" />
        </mxCell>
        <mxCell id="WKHbW0rFje34zPn7IEfF-23" value="TRP1 QPS: 500" style="rounded=1;whiteSpace=wrap;html=1;fillColor=#696773;strokeColor=none;shadow=1;glass=0;comic=0;gradientColor=none;fontFamily=Courier New;fontColor=#FFFFFF;" vertex="1" parent="ZhET5mZ9b83PnPrSQOGt-1">
          <mxGeometry x="1130" y="1870" width="120" height="40" as="geometry" />
        </mxCell>
        <mxCell id="WKHbW0rFje34zPn7IEfF-24" value="" style="rounded=1;whiteSpace=wrap;html=1;fillColor=#eff1f3;strokeColor=none;shadow=0;glass=0;comic=0;gradientColor=none;fontFamily=Courier New;fontColor=#FFFFFF;" vertex="1" parent="ZhET5mZ9b83PnPrSQOGt-1">
          <mxGeometry x="320" y="1590" width="1070" height="450" as="geometry" />
        </mxCell>
        <mxCell id="WKHbW0rFje34zPn7IEfF-25" value="" style="rounded=1;whiteSpace=wrap;html=1;fillColor=#79d9ce;strokeColor=none;shadow=1;glass=0;comic=0;gradientColor=none;" vertex="1" parent="ZhET5mZ9b83PnPrSQOGt-1">
          <mxGeometry x="373.5" y="1660" width="221" height="280" as="geometry" />
        </mxCell>
        <mxCell id="WKHbW0rFje34zPn7IEfF-26" value="chunk1 QPS:1400" style="text;html=1;align=center;verticalAlign=middle;resizable=0;points=[];autosize=1;strokeColor=none;fillColor=none;fontSize=18;fontFamily=Times New Roman;fontColor=#000000;" vertex="1" parent="ZhET5mZ9b83PnPrSQOGt-1">
          <mxGeometry x="405" y="1625" width="150" height="30" as="geometry" />
        </mxCell>
        <mxCell id="WKHbW0rFje34zPn7IEfF-27" value="" style="rounded=1;whiteSpace=wrap;html=1;fillColor=#79d9ce;strokeColor=none;shadow=1;glass=0;comic=0;gradientColor=none;" vertex="1" parent="ZhET5mZ9b83PnPrSQOGt-1">
          <mxGeometry x="620" y="1660" width="221" height="280" as="geometry" />
        </mxCell>
        <mxCell id="WKHbW0rFje34zPn7IEfF-28" value="" style="rounded=1;whiteSpace=wrap;html=1;fillColor=#79d9ce;strokeColor=none;shadow=1;glass=0;comic=0;gradientColor=none;" vertex="1" parent="ZhET5mZ9b83PnPrSQOGt-1">
          <mxGeometry x="860" y="1660" width="221" height="280" as="geometry" />
        </mxCell>
        <mxCell id="WKHbW0rFje34zPn7IEfF-29" value="chunk2 QPS:2800" style="text;html=1;align=center;verticalAlign=middle;resizable=0;points=[];autosize=1;strokeColor=none;fillColor=none;fontSize=18;fontFamily=Times New Roman;fontColor=#000000;" vertex="1" parent="ZhET5mZ9b83PnPrSQOGt-1">
          <mxGeometry x="640" y="1620" width="150" height="30" as="geometry" />
        </mxCell>
        <mxCell id="WKHbW0rFje34zPn7IEfF-30" value="TRP1 QPS:100" style="rounded=1;whiteSpace=wrap;html=1;fillColor=#696773;strokeColor=none;shadow=1;glass=0;comic=0;gradientColor=none;fontFamily=Courier New;fontColor=#FFFFFF;" vertex="1" parent="ZhET5mZ9b83PnPrSQOGt-1">
          <mxGeometry x="424" y="1680" width="120" height="40" as="geometry" />
        </mxCell>
        <mxCell id="WKHbW0rFje34zPn7IEfF-31" value="" style="rounded=1;whiteSpace=wrap;html=1;fillColor=#79d9ce;strokeColor=none;shadow=1;glass=0;comic=0;gradientColor=none;" vertex="1" parent="ZhET5mZ9b83PnPrSQOGt-1">
          <mxGeometry x="1100" y="1660" width="221" height="280" as="geometry" />
        </mxCell>
        <mxCell id="WKHbW0rFje34zPn7IEfF-32" value="TRP2 QPS:200" style="rounded=1;whiteSpace=wrap;html=1;fillColor=#696773;strokeColor=none;shadow=1;glass=0;comic=0;gradientColor=none;fontFamily=Courier New;fontColor=#FFFFFF;" vertex="1" parent="ZhET5mZ9b83PnPrSQOGt-1">
          <mxGeometry x="420" y="1743.5" width="120" height="40" as="geometry" />
        </mxCell>
        <mxCell id="WKHbW0rFje34zPn7IEfF-33" value="TRP3 QPS:500" style="rounded=1;whiteSpace=wrap;html=1;fillColor=#696773;strokeColor=none;shadow=1;glass=0;comic=0;gradientColor=none;fontFamily=Courier New;fontColor=#FFFFFF;" vertex="1" parent="ZhET5mZ9b83PnPrSQOGt-1">
          <mxGeometry x="424" y="1810" width="120" height="40" as="geometry" />
        </mxCell>
        <mxCell id="WKHbW0rFje34zPn7IEfF-34" value="TRP4 QPS:600" style="rounded=1;whiteSpace=wrap;html=1;fillColor=#696773;strokeColor=none;shadow=1;glass=0;comic=0;gradientColor=none;fontFamily=Courier New;fontColor=#FFFFFF;" vertex="1" parent="ZhET5mZ9b83PnPrSQOGt-1">
          <mxGeometry x="420" y="1880" width="120" height="40" as="geometry" />
        </mxCell>
        <mxCell id="WKHbW0rFje34zPn7IEfF-35" value="TRP5 QPS: 400" style="rounded=1;whiteSpace=wrap;html=1;fillColor=#696773;strokeColor=none;shadow=1;glass=0;comic=0;gradientColor=none;fontFamily=Courier New;fontColor=#FFFFFF;" vertex="1" parent="ZhET5mZ9b83PnPrSQOGt-1">
          <mxGeometry x="670.5" y="1680" width="120" height="40" as="geometry" />
        </mxCell>
        <mxCell id="WKHbW0rFje34zPn7IEfF-36" value="TRP6 QPS: 700" style="rounded=1;whiteSpace=wrap;html=1;fillColor=#696773;strokeColor=none;shadow=1;glass=0;comic=0;gradientColor=none;fontFamily=Courier New;fontColor=#FFFFFF;" vertex="1" parent="ZhET5mZ9b83PnPrSQOGt-1">
          <mxGeometry x="670.5" y="1743.5" width="120" height="40" as="geometry" />
        </mxCell>
        <mxCell id="WKHbW0rFje34zPn7IEfF-37" value="TRP7 QPS:800" style="rounded=1;whiteSpace=wrap;html=1;fillColor=#696773;strokeColor=none;shadow=1;glass=0;comic=0;gradientColor=none;fontFamily=Courier New;fontColor=#FFFFFF;" vertex="1" parent="ZhET5mZ9b83PnPrSQOGt-1">
          <mxGeometry x="670.5" y="1810" width="120" height="40" as="geometry" />
        </mxCell>
        <mxCell id="WKHbW0rFje34zPn7IEfF-38" value="TRP8 QPS:900" style="rounded=1;whiteSpace=wrap;html=1;fillColor=#696773;strokeColor=none;shadow=1;glass=0;comic=0;gradientColor=none;fontFamily=Courier New;fontColor=#FFFFFF;" vertex="1" parent="ZhET5mZ9b83PnPrSQOGt-1">
          <mxGeometry x="670.5" y="1880" width="120" height="40" as="geometry" />
        </mxCell>
        <mxCell id="WKHbW0rFje34zPn7IEfF-39" value="TRP9 QPS:200" style="rounded=1;whiteSpace=wrap;html=1;fillColor=#696773;strokeColor=none;shadow=1;glass=0;comic=0;gradientColor=none;fontFamily=Courier New;fontColor=#FFFFFF;" vertex="1" parent="ZhET5mZ9b83PnPrSQOGt-1">
          <mxGeometry x="910.5" y="1680" width="120" height="40" as="geometry" />
        </mxCell>
        <mxCell id="WKHbW0rFje34zPn7IEfF-40" value="TRP10 QPS:500" style="rounded=1;whiteSpace=wrap;html=1;fillColor=#696773;strokeColor=none;shadow=1;glass=0;comic=0;gradientColor=none;fontFamily=Courier New;fontColor=#FFFFFF;" vertex="1" parent="ZhET5mZ9b83PnPrSQOGt-1">
          <mxGeometry x="910.5" y="1744" width="120" height="40" as="geometry" />
        </mxCell>
        <mxCell id="WKHbW0rFje34zPn7IEfF-41" value="TRP11 QPS:700" style="rounded=1;whiteSpace=wrap;html=1;fillColor=#696773;strokeColor=none;shadow=1;glass=0;comic=0;gradientColor=none;fontFamily=Courier New;fontColor=#FFFFFF;" vertex="1" parent="ZhET5mZ9b83PnPrSQOGt-1">
          <mxGeometry x="910.5" y="1810" width="120" height="40" as="geometry" />
        </mxCell>
        <mxCell id="WKHbW0rFje34zPn7IEfF-42" value="TRP12 QPS:1000" style="rounded=1;whiteSpace=wrap;html=1;fillColor=#696773;strokeColor=none;shadow=1;glass=0;comic=0;gradientColor=none;fontFamily=Courier New;fontColor=#FFFFFF;" vertex="1" parent="ZhET5mZ9b83PnPrSQOGt-1">
          <mxGeometry x="910.5" y="1880" width="120" height="40" as="geometry" />
        </mxCell>
        <mxCell id="WKHbW0rFje34zPn7IEfF-43" value="TRP13 QPS:400" style="rounded=1;whiteSpace=wrap;html=1;fillColor=#696773;strokeColor=none;shadow=1;glass=0;comic=0;gradientColor=none;fontFamily=Courier New;fontColor=#FFFFFF;" vertex="1" parent="ZhET5mZ9b83PnPrSQOGt-1">
          <mxGeometry x="1140" y="1680" width="120" height="40" as="geometry" />
        </mxCell>
        <mxCell id="WKHbW0rFje34zPn7IEfF-44" value="TRP14 QPS:400" style="rounded=1;whiteSpace=wrap;html=1;fillColor=#696773;strokeColor=none;shadow=1;glass=0;comic=0;gradientColor=none;fontFamily=Courier New;fontColor=#FFFFFF;" vertex="1" parent="ZhET5mZ9b83PnPrSQOGt-1">
          <mxGeometry x="1140" y="1743.5" width="120" height="40" as="geometry" />
        </mxCell>
        <mxCell id="WKHbW0rFje34zPn7IEfF-45" value="TRP15 QPS:400" style="rounded=1;whiteSpace=wrap;html=1;fillColor=#696773;strokeColor=none;shadow=1;glass=0;comic=0;gradientColor=none;fontFamily=Courier New;fontColor=#FFFFFF;" vertex="1" parent="ZhET5mZ9b83PnPrSQOGt-1">
          <mxGeometry x="1140" y="1810" width="120" height="40" as="geometry" />
        </mxCell>
        <mxCell id="WKHbW0rFje34zPn7IEfF-46" value="TRP16 QPS: 500" style="rounded=1;whiteSpace=wrap;html=1;fillColor=#696773;strokeColor=none;shadow=1;glass=0;comic=0;gradientColor=none;fontFamily=Courier New;fontColor=#FFFFFF;" vertex="1" parent="ZhET5mZ9b83PnPrSQOGt-1">
          <mxGeometry x="1140" y="1880" width="120" height="40" as="geometry" />
        </mxCell>
        <mxCell id="WKHbW0rFje34zPn7IEfF-47" value="chunk3 QPS:2400" style="text;html=1;align=center;verticalAlign=middle;resizable=0;points=[];autosize=1;strokeColor=none;fillColor=none;fontSize=18;fontFamily=Times New Roman;fontColor=#000000;" vertex="1" parent="ZhET5mZ9b83PnPrSQOGt-1">
          <mxGeometry x="890.5" y="1620" width="150" height="30" as="geometry" />
        </mxCell>
        <mxCell id="WKHbW0rFje34zPn7IEfF-48" value="chunk4 QPS:1700" style="text;html=1;align=center;verticalAlign=middle;resizable=0;points=[];autosize=1;strokeColor=none;fillColor=none;fontSize=18;fontFamily=Times New Roman;fontColor=#000000;" vertex="1" parent="ZhET5mZ9b83PnPrSQOGt-1">
          <mxGeometry x="1130" y="1620" width="150" height="30" as="geometry" />
        </mxCell>
        <mxCell id="WKHbW0rFje34zPn7IEfF-49" value="&lt;font color=&quot;#ff00ff&quot; style=&quot;font-size: 24px&quot;&gt;AverageChunkQPS: 2075&amp;nbsp;&amp;nbsp;&lt;/font&gt;" style="text;html=1;align=center;verticalAlign=middle;resizable=0;points=[];autosize=1;strokeColor=none;fillColor=none;fontSize=18;fontFamily=Times New Roman;fontColor=#FFFFFF;" vertex="1" parent="ZhET5mZ9b83PnPrSQOGt-1">
          <mxGeometry x="720" y="1970" width="280" height="30" as="geometry" />
        </mxCell>
        <mxCell id="WKHbW0rFje34zPn7IEfF-50" value="&lt;font color=&quot;#ff00ff&quot; style=&quot;font-size: 24px&quot;&gt;AverageChunkQPSUp: 2283&lt;/font&gt;" style="text;html=1;align=center;verticalAlign=middle;resizable=0;points=[];autosize=1;strokeColor=none;fillColor=none;fontSize=18;fontFamily=Times New Roman;fontColor=#FFFFFF;" vertex="1" parent="ZhET5mZ9b83PnPrSQOGt-1">
          <mxGeometry x="1000" y="1970" width="290" height="30" as="geometry" />
        </mxCell>
        <mxCell id="WKHbW0rFje34zPn7IEfF-51" value="&lt;font color=&quot;#ff00ff&quot; style=&quot;font-size: 24px&quot;&gt;AverageChunkQPSDown: 1868&amp;nbsp;&amp;nbsp;&lt;/font&gt;" style="text;html=1;align=center;verticalAlign=middle;resizable=0;points=[];autosize=1;strokeColor=none;fillColor=none;fontSize=18;fontFamily=Times New Roman;fontColor=#FFFFFF;" vertex="1" parent="ZhET5mZ9b83PnPrSQOGt-1">
          <mxGeometry x="400" y="1970" width="330" height="30" as="geometry" />
        </mxCell>
        <mxCell id="WKHbW0rFje34zPn7IEfF-52" value="" style="rounded=1;whiteSpace=wrap;html=1;fillColor=#79d9ce;strokeColor=none;shadow=1;glass=0;comic=0;gradientColor=none;" vertex="1" parent="ZhET5mZ9b83PnPrSQOGt-1">
          <mxGeometry x="353.5" y="2190" width="221" height="280" as="geometry" />
        </mxCell>
        <mxCell id="WKHbW0rFje34zPn7IEfF-53" value="chunk1" style="text;html=1;align=center;verticalAlign=middle;resizable=0;points=[];autosize=1;strokeColor=none;fillColor=none;fontSize=18;fontFamily=Times New Roman;fontColor=#000000;" vertex="1" parent="ZhET5mZ9b83PnPrSQOGt-1">
          <mxGeometry x="425" y="2155" width="70" height="30" as="geometry" />
        </mxCell>
        <mxCell id="WKHbW0rFje34zPn7IEfF-54" value="" style="rounded=1;whiteSpace=wrap;html=1;fillColor=#79d9ce;strokeColor=none;shadow=1;glass=0;comic=0;gradientColor=none;" vertex="1" parent="ZhET5mZ9b83PnPrSQOGt-1">
          <mxGeometry x="600" y="2190" width="221" height="280" as="geometry" />
        </mxCell>
        <mxCell id="WKHbW0rFje34zPn7IEfF-55" value="" style="rounded=1;whiteSpace=wrap;html=1;fillColor=#79d9ce;strokeColor=none;shadow=1;glass=0;comic=0;gradientColor=none;" vertex="1" parent="ZhET5mZ9b83PnPrSQOGt-1">
          <mxGeometry x="840" y="2190" width="221" height="280" as="geometry" />
        </mxCell>
        <mxCell id="WKHbW0rFje34zPn7IEfF-56" value="chunk2" style="text;html=1;align=center;verticalAlign=middle;resizable=0;points=[];autosize=1;strokeColor=none;fillColor=none;fontSize=18;fontFamily=Times New Roman;fontColor=#000000;" vertex="1" parent="ZhET5mZ9b83PnPrSQOGt-1">
          <mxGeometry x="660" y="2150" width="70" height="30" as="geometry" />
        </mxCell>
        <mxCell id="WKHbW0rFje34zPn7IEfF-57" value="chunk3" style="text;html=1;align=center;verticalAlign=middle;resizable=0;points=[];autosize=1;strokeColor=none;fillColor=none;fontSize=18;fontFamily=Times New Roman;fontColor=#000000;" vertex="1" parent="ZhET5mZ9b83PnPrSQOGt-1">
          <mxGeometry x="915.5" y="2150" width="70" height="30" as="geometry" />
        </mxCell>
        <mxCell id="WKHbW0rFje34zPn7IEfF-58" value="TRP1 QPS:100" style="rounded=1;whiteSpace=wrap;html=1;fillColor=#696773;strokeColor=none;shadow=1;glass=0;comic=0;gradientColor=none;fontFamily=Courier New;fontColor=#FFFFFF;" vertex="1" parent="ZhET5mZ9b83PnPrSQOGt-1">
          <mxGeometry x="404" y="2210" width="120" height="40" as="geometry" />
        </mxCell>
        <mxCell id="WKHbW0rFje34zPn7IEfF-59" value="" style="rounded=1;whiteSpace=wrap;html=1;fillColor=#79d9ce;strokeColor=none;shadow=1;glass=0;comic=0;gradientColor=none;" vertex="1" parent="ZhET5mZ9b83PnPrSQOGt-1">
          <mxGeometry x="1080" y="2190" width="221" height="280" as="geometry" />
        </mxCell>
        <mxCell id="WKHbW0rFje34zPn7IEfF-60" value="chunk4" style="text;html=1;align=center;verticalAlign=middle;resizable=0;points=[];autosize=1;strokeColor=none;fillColor=none;fontSize=18;fontFamily=Times New Roman;fontColor=#000000;" vertex="1" parent="ZhET5mZ9b83PnPrSQOGt-1">
          <mxGeometry x="1161" y="2150" width="70" height="30" as="geometry" />
        </mxCell>
        <mxCell id="WKHbW0rFje34zPn7IEfF-61" value="TRP1 QPS:200" style="rounded=1;whiteSpace=wrap;html=1;fillColor=#696773;strokeColor=none;shadow=1;glass=0;comic=0;gradientColor=none;fontFamily=Courier New;fontColor=#FFFFFF;" vertex="1" parent="ZhET5mZ9b83PnPrSQOGt-1">
          <mxGeometry x="400" y="2273.5" width="120" height="40" as="geometry" />
        </mxCell>
        <mxCell id="WKHbW0rFje34zPn7IEfF-62" value="TRP1 QPS:500" style="rounded=1;whiteSpace=wrap;html=1;fillColor=#696773;strokeColor=none;shadow=1;glass=0;comic=0;gradientColor=none;fontFamily=Courier New;fontColor=#FFFFFF;" vertex="1" parent="ZhET5mZ9b83PnPrSQOGt-1">
          <mxGeometry x="404" y="2340" width="120" height="40" as="geometry" />
        </mxCell>
        <mxCell id="WKHbW0rFje34zPn7IEfF-63" value="TRP1 QPS:600" style="rounded=1;whiteSpace=wrap;html=1;fillColor=#696773;strokeColor=none;shadow=1;glass=0;comic=0;gradientColor=none;fontFamily=Courier New;fontColor=#FFFFFF;" vertex="1" parent="ZhET5mZ9b83PnPrSQOGt-1">
          <mxGeometry x="400" y="2410" width="120" height="40" as="geometry" />
        </mxCell>
        <mxCell id="WKHbW0rFje34zPn7IEfF-64" value="TRP1 QPS: 300" style="rounded=1;whiteSpace=wrap;html=1;fillColor=#696773;strokeColor=none;shadow=1;glass=0;comic=0;gradientColor=none;fontFamily=Courier New;fontColor=#FFFFFF;" vertex="1" parent="ZhET5mZ9b83PnPrSQOGt-1">
          <mxGeometry x="650.5" y="2210" width="120" height="40" as="geometry" />
        </mxCell>
        <mxCell id="WKHbW0rFje34zPn7IEfF-65" value="TRP1 QPS: 300" style="rounded=1;whiteSpace=wrap;html=1;fillColor=#696773;strokeColor=none;shadow=1;glass=0;comic=0;gradientColor=none;fontFamily=Courier New;fontColor=#FFFFFF;" vertex="1" parent="ZhET5mZ9b83PnPrSQOGt-1">
          <mxGeometry x="650.5" y="2273.5" width="120" height="40" as="geometry" />
        </mxCell>
        <mxCell id="WKHbW0rFje34zPn7IEfF-66" value="TRP1 QPS:400" style="rounded=1;whiteSpace=wrap;html=1;fillColor=#696773;strokeColor=none;shadow=1;glass=0;comic=0;gradientColor=none;fontFamily=Courier New;fontColor=#FFFFFF;" vertex="1" parent="ZhET5mZ9b83PnPrSQOGt-1">
          <mxGeometry x="650.5" y="2340" width="120" height="40" as="geometry" />
        </mxCell>
        <mxCell id="WKHbW0rFje34zPn7IEfF-67" value="TRP1 QPS:500" style="rounded=1;whiteSpace=wrap;html=1;fillColor=#696773;strokeColor=none;shadow=1;glass=0;comic=0;gradientColor=none;fontFamily=Courier New;fontColor=#FFFFFF;" vertex="1" parent="ZhET5mZ9b83PnPrSQOGt-1">
          <mxGeometry x="650.5" y="2410" width="120" height="40" as="geometry" />
        </mxCell>
        <mxCell id="WKHbW0rFje34zPn7IEfF-68" value="TRP1 QPS:300" style="rounded=1;whiteSpace=wrap;html=1;fillColor=#696773;strokeColor=none;shadow=1;glass=0;comic=0;gradientColor=none;fontFamily=Courier New;fontColor=#FFFFFF;" vertex="1" parent="ZhET5mZ9b83PnPrSQOGt-1">
          <mxGeometry x="890.5" y="2210" width="120" height="40" as="geometry" />
        </mxCell>
        <mxCell id="WKHbW0rFje34zPn7IEfF-69" value="TRP1 QPS:400" style="rounded=1;whiteSpace=wrap;html=1;fillColor=#696773;strokeColor=none;shadow=1;glass=0;comic=0;gradientColor=none;fontFamily=Courier New;fontColor=#FFFFFF;" vertex="1" parent="ZhET5mZ9b83PnPrSQOGt-1">
          <mxGeometry x="890.5" y="2274" width="120" height="40" as="geometry" />
        </mxCell>
        <mxCell id="WKHbW0rFje34zPn7IEfF-70" value="TRP1 QPS:400" style="rounded=1;whiteSpace=wrap;html=1;fillColor=#696773;strokeColor=none;shadow=1;glass=0;comic=0;gradientColor=none;fontFamily=Courier New;fontColor=#FFFFFF;" vertex="1" parent="ZhET5mZ9b83PnPrSQOGt-1">
          <mxGeometry x="890.5" y="2340" width="120" height="40" as="geometry" />
        </mxCell>
        <mxCell id="WKHbW0rFje34zPn7IEfF-71" value="TRP1 QPS:500" style="rounded=1;whiteSpace=wrap;html=1;fillColor=#696773;strokeColor=none;shadow=1;glass=0;comic=0;gradientColor=none;fontFamily=Courier New;fontColor=#FFFFFF;" vertex="1" parent="ZhET5mZ9b83PnPrSQOGt-1">
          <mxGeometry x="890.5" y="2410" width="120" height="40" as="geometry" />
        </mxCell>
        <mxCell id="WKHbW0rFje34zPn7IEfF-72" value="TRP1 QPS:400" style="rounded=1;whiteSpace=wrap;html=1;fillColor=#696773;strokeColor=none;shadow=1;glass=0;comic=0;gradientColor=none;fontFamily=Courier New;fontColor=#FFFFFF;" vertex="1" parent="ZhET5mZ9b83PnPrSQOGt-1">
          <mxGeometry x="1120" y="2210" width="120" height="40" as="geometry" />
        </mxCell>
        <mxCell id="WKHbW0rFje34zPn7IEfF-73" value="TRP1 QPS:400" style="rounded=1;whiteSpace=wrap;html=1;fillColor=#696773;strokeColor=none;shadow=1;glass=0;comic=0;gradientColor=none;fontFamily=Courier New;fontColor=#FFFFFF;" vertex="1" parent="ZhET5mZ9b83PnPrSQOGt-1">
          <mxGeometry x="1120" y="2273.5" width="120" height="40" as="geometry" />
        </mxCell>
        <mxCell id="WKHbW0rFje34zPn7IEfF-74" value="TRP1 QPS:400" style="rounded=1;whiteSpace=wrap;html=1;fillColor=#696773;strokeColor=none;shadow=1;glass=0;comic=0;gradientColor=none;fontFamily=Courier New;fontColor=#FFFFFF;" vertex="1" parent="ZhET5mZ9b83PnPrSQOGt-1">
          <mxGeometry x="1120" y="2340" width="120" height="40" as="geometry" />
        </mxCell>
        <mxCell id="WKHbW0rFje34zPn7IEfF-75" value="TRP1 QPS: 500" style="rounded=1;whiteSpace=wrap;html=1;fillColor=#696773;strokeColor=none;shadow=1;glass=0;comic=0;gradientColor=none;fontFamily=Courier New;fontColor=#FFFFFF;" vertex="1" parent="ZhET5mZ9b83PnPrSQOGt-1">
          <mxGeometry x="1120" y="2410" width="120" height="40" as="geometry" />
        </mxCell>
        <mxCell id="WKHbW0rFje34zPn7IEfF-76" value="" style="rounded=1;whiteSpace=wrap;html=1;fillColor=#eff1f3;strokeColor=none;shadow=0;glass=0;comic=0;gradientColor=none;fontFamily=Courier New;fontColor=#FFFFFF;" vertex="1" parent="ZhET5mZ9b83PnPrSQOGt-1">
          <mxGeometry x="310" y="2130" width="1100" height="550" as="geometry" />
        </mxCell>
        <mxCell id="WKHbW0rFje34zPn7IEfF-77" value="" style="rounded=1;whiteSpace=wrap;html=1;fillColor=#79d9ce;strokeColor=none;shadow=1;glass=0;comic=0;gradientColor=none;" vertex="1" parent="ZhET5mZ9b83PnPrSQOGt-1">
          <mxGeometry x="363.5" y="2200" width="216.5" height="380" as="geometry" />
        </mxCell>
        <mxCell id="WKHbW0rFje34zPn7IEfF-78" value="chunk1 QPS:2200" style="text;html=1;align=center;verticalAlign=middle;resizable=0;points=[];autosize=1;strokeColor=none;fillColor=none;fontSize=18;fontFamily=Times New Roman;fontColor=#000000;" vertex="1" parent="ZhET5mZ9b83PnPrSQOGt-1">
          <mxGeometry x="395" y="2165" width="150" height="30" as="geometry" />
        </mxCell>
        <mxCell id="WKHbW0rFje34zPn7IEfF-79" value="" style="rounded=1;whiteSpace=wrap;html=1;fillColor=#79d9ce;strokeColor=none;shadow=1;glass=0;comic=0;gradientColor=none;" vertex="1" parent="ZhET5mZ9b83PnPrSQOGt-1">
          <mxGeometry x="610" y="2200" width="221" height="280" as="geometry" />
        </mxCell>
        <mxCell id="WKHbW0rFje34zPn7IEfF-80" value="" style="rounded=1;whiteSpace=wrap;html=1;fillColor=#79d9ce;strokeColor=none;shadow=1;glass=0;comic=0;gradientColor=none;" vertex="1" parent="ZhET5mZ9b83PnPrSQOGt-1">
          <mxGeometry x="850" y="2200" width="210" height="280" as="geometry" />
        </mxCell>
        <mxCell id="WKHbW0rFje34zPn7IEfF-81" value="chunk2 QPS:2000" style="text;html=1;align=center;verticalAlign=middle;resizable=0;points=[];autosize=1;strokeColor=none;fillColor=none;fontSize=18;fontFamily=Times New Roman;fontColor=#000000;" vertex="1" parent="ZhET5mZ9b83PnPrSQOGt-1">
          <mxGeometry x="630" y="2160" width="150" height="30" as="geometry" />
        </mxCell>
        <mxCell id="WKHbW0rFje34zPn7IEfF-82" value="TRP1 QPS:100" style="rounded=1;whiteSpace=wrap;html=1;fillColor=#696773;strokeColor=none;shadow=1;glass=0;comic=0;gradientColor=none;fontFamily=Courier New;fontColor=#FFFFFF;" vertex="1" parent="ZhET5mZ9b83PnPrSQOGt-1">
          <mxGeometry x="414" y="2220" width="120" height="40" as="geometry" />
        </mxCell>
        <mxCell id="WKHbW0rFje34zPn7IEfF-83" value="" style="rounded=1;whiteSpace=wrap;html=1;fillColor=#79d9ce;strokeColor=none;shadow=1;glass=0;comic=0;gradientColor=none;" vertex="1" parent="ZhET5mZ9b83PnPrSQOGt-1">
          <mxGeometry x="1090" y="2200" width="220" height="340" as="geometry" />
        </mxCell>
        <mxCell id="WKHbW0rFje34zPn7IEfF-84" value="TRP2 QPS:200" style="rounded=1;whiteSpace=wrap;html=1;fillColor=#696773;strokeColor=none;shadow=1;glass=0;comic=0;gradientColor=none;fontFamily=Courier New;fontColor=#FFFFFF;" vertex="1" parent="ZhET5mZ9b83PnPrSQOGt-1">
          <mxGeometry x="410" y="2283.5" width="120" height="40" as="geometry" />
        </mxCell>
        <mxCell id="WKHbW0rFje34zPn7IEfF-85" value="TRP3 QPS:500" style="rounded=1;whiteSpace=wrap;html=1;fillColor=#696773;strokeColor=none;shadow=1;glass=0;comic=0;gradientColor=none;fontFamily=Courier New;fontColor=#FFFFFF;" vertex="1" parent="ZhET5mZ9b83PnPrSQOGt-1">
          <mxGeometry x="414" y="2350" width="120" height="40" as="geometry" />
        </mxCell>
        <mxCell id="WKHbW0rFje34zPn7IEfF-86" value="TRP4 QPS:600" style="rounded=1;whiteSpace=wrap;html=1;fillColor=#696773;strokeColor=none;shadow=1;glass=0;comic=0;gradientColor=none;fontFamily=Courier New;fontColor=#FFFFFF;" vertex="1" parent="ZhET5mZ9b83PnPrSQOGt-1">
          <mxGeometry x="410" y="2420" width="120" height="40" as="geometry" />
        </mxCell>
        <mxCell id="WKHbW0rFje34zPn7IEfF-87" value="TRP5 QPS: 400" style="rounded=1;whiteSpace=wrap;html=1;fillColor=#696773;strokeColor=none;shadow=1;glass=0;comic=0;gradientColor=none;fontFamily=Courier New;fontColor=#FFFFFF;" vertex="1" parent="ZhET5mZ9b83PnPrSQOGt-1">
          <mxGeometry x="660.5" y="2220" width="120" height="40" as="geometry" />
        </mxCell>
        <mxCell id="WKHbW0rFje34zPn7IEfF-88" value="TRP6 QPS: 700" style="rounded=1;whiteSpace=wrap;html=1;fillColor=#696773;strokeColor=none;shadow=1;glass=0;comic=0;gradientColor=none;fontFamily=Courier New;fontColor=#FFFFFF;" vertex="1" parent="ZhET5mZ9b83PnPrSQOGt-1">
          <mxGeometry x="660.5" y="2283.5" width="120" height="40" as="geometry" />
        </mxCell>
        <mxCell id="WKHbW0rFje34zPn7IEfF-89" value="TRP7 QPS:800" style="rounded=1;whiteSpace=wrap;html=1;fillColor=#696773;strokeColor=none;shadow=1;glass=0;comic=0;gradientColor=none;fontFamily=Courier New;fontColor=#FFFFFF;" vertex="1" parent="ZhET5mZ9b83PnPrSQOGt-1">
          <mxGeometry x="410" y="2500" width="120" height="40" as="geometry" />
        </mxCell>
        <mxCell id="WKHbW0rFje34zPn7IEfF-90" value="TRP8 QPS:900" style="rounded=1;whiteSpace=wrap;html=1;fillColor=#696773;strokeColor=none;shadow=1;glass=0;comic=0;gradientColor=none;fontFamily=Courier New;fontColor=#FFFFFF;" vertex="1" parent="ZhET5mZ9b83PnPrSQOGt-1">
          <mxGeometry x="660" y="2350" width="120" height="40" as="geometry" />
        </mxCell>
        <mxCell id="WKHbW0rFje34zPn7IEfF-91" value="TRP9 QPS:200" style="rounded=1;whiteSpace=wrap;html=1;fillColor=#696773;strokeColor=none;shadow=1;glass=0;comic=0;gradientColor=none;fontFamily=Courier New;fontColor=#FFFFFF;" vertex="1" parent="ZhET5mZ9b83PnPrSQOGt-1">
          <mxGeometry x="900.5" y="2220" width="120" height="40" as="geometry" />
        </mxCell>
        <mxCell id="WKHbW0rFje34zPn7IEfF-92" value="TRP10 QPS:500" style="rounded=1;whiteSpace=wrap;html=1;fillColor=#696773;strokeColor=none;shadow=1;glass=0;comic=0;gradientColor=none;fontFamily=Courier New;fontColor=#FFFFFF;" vertex="1" parent="ZhET5mZ9b83PnPrSQOGt-1">
          <mxGeometry x="1135" y="2480" width="120" height="40" as="geometry" />
        </mxCell>
        <mxCell id="WKHbW0rFje34zPn7IEfF-93" value="TRP11 QPS:700" style="rounded=1;whiteSpace=wrap;html=1;fillColor=#696773;strokeColor=none;shadow=1;glass=0;comic=0;gradientColor=none;fontFamily=Courier New;fontColor=#FFFFFF;" vertex="1" parent="ZhET5mZ9b83PnPrSQOGt-1">
          <mxGeometry x="895.5" y="2290" width="120" height="40" as="geometry" />
        </mxCell>
        <mxCell id="WKHbW0rFje34zPn7IEfF-94" value="TRP12 QPS:1000" style="rounded=1;whiteSpace=wrap;html=1;fillColor=#696773;strokeColor=none;shadow=1;glass=0;comic=0;gradientColor=none;fontFamily=Courier New;fontColor=#FFFFFF;" vertex="1" parent="ZhET5mZ9b83PnPrSQOGt-1">
          <mxGeometry x="895" y="2350" width="120" height="40" as="geometry" />
        </mxCell>
        <mxCell id="WKHbW0rFje34zPn7IEfF-95" value="TRP13 QPS:400" style="rounded=1;whiteSpace=wrap;html=1;fillColor=#696773;strokeColor=none;shadow=1;glass=0;comic=0;gradientColor=none;fontFamily=Courier New;fontColor=#FFFFFF;" vertex="1" parent="ZhET5mZ9b83PnPrSQOGt-1">
          <mxGeometry x="1130" y="2220" width="120" height="40" as="geometry" />
        </mxCell>
        <mxCell id="WKHbW0rFje34zPn7IEfF-96" value="TRP14 QPS:400" style="rounded=1;whiteSpace=wrap;html=1;fillColor=#696773;strokeColor=none;shadow=1;glass=0;comic=0;gradientColor=none;fontFamily=Courier New;fontColor=#FFFFFF;" vertex="1" parent="ZhET5mZ9b83PnPrSQOGt-1">
          <mxGeometry x="1130" y="2283.5" width="120" height="40" as="geometry" />
        </mxCell>
        <mxCell id="WKHbW0rFje34zPn7IEfF-97" value="TRP15 QPS:400" style="rounded=1;whiteSpace=wrap;html=1;fillColor=#696773;strokeColor=none;shadow=1;glass=0;comic=0;gradientColor=none;fontFamily=Courier New;fontColor=#FFFFFF;" vertex="1" parent="ZhET5mZ9b83PnPrSQOGt-1">
          <mxGeometry x="1130" y="2350" width="120" height="40" as="geometry" />
        </mxCell>
        <mxCell id="WKHbW0rFje34zPn7IEfF-98" value="TRP16 QPS: 500" style="rounded=1;whiteSpace=wrap;html=1;fillColor=#696773;strokeColor=none;shadow=1;glass=0;comic=0;gradientColor=none;fontFamily=Courier New;fontColor=#FFFFFF;" vertex="1" parent="ZhET5mZ9b83PnPrSQOGt-1">
          <mxGeometry x="1130" y="2420" width="120" height="40" as="geometry" />
        </mxCell>
        <mxCell id="WKHbW0rFje34zPn7IEfF-99" value="chunk3 QPS:1900" style="text;html=1;align=center;verticalAlign=middle;resizable=0;points=[];autosize=1;strokeColor=none;fillColor=none;fontSize=18;fontFamily=Times New Roman;fontColor=#000000;" vertex="1" parent="ZhET5mZ9b83PnPrSQOGt-1">
          <mxGeometry x="880.5" y="2160" width="150" height="30" as="geometry" />
        </mxCell>
        <mxCell id="WKHbW0rFje34zPn7IEfF-100" value="chunk4 QPS:2200" style="text;html=1;align=center;verticalAlign=middle;resizable=0;points=[];autosize=1;strokeColor=none;fillColor=none;fontSize=18;fontFamily=Times New Roman;fontColor=#000000;" vertex="1" parent="ZhET5mZ9b83PnPrSQOGt-1">
          <mxGeometry x="1120" y="2160" width="150" height="30" as="geometry" />
        </mxCell>
        <mxCell id="WKHbW0rFje34zPn7IEfF-101" value="&lt;font color=&quot;#ff00ff&quot; style=&quot;font-size: 24px&quot;&gt;AverageChunkQPS: 2075&amp;nbsp;&amp;nbsp;&lt;/font&gt;" style="text;html=1;align=center;verticalAlign=middle;resizable=0;points=[];autosize=1;strokeColor=none;fillColor=none;fontSize=18;fontFamily=Times New Roman;fontColor=#FFFFFF;" vertex="1" parent="ZhET5mZ9b83PnPrSQOGt-1">
          <mxGeometry x="690" y="2610" width="280" height="30" as="geometry" />
        </mxCell>
        <mxCell id="WKHbW0rFje34zPn7IEfF-102" value="&lt;font color=&quot;#ff00ff&quot; style=&quot;font-size: 24px&quot;&gt;AverageChunkQPSUp: 2283&lt;/font&gt;" style="text;html=1;align=center;verticalAlign=middle;resizable=0;points=[];autosize=1;strokeColor=none;fillColor=none;fontSize=18;fontFamily=Times New Roman;fontColor=#FFFFFF;" vertex="1" parent="ZhET5mZ9b83PnPrSQOGt-1">
          <mxGeometry x="980" y="2610" width="290" height="30" as="geometry" />
        </mxCell>
        <mxCell id="WKHbW0rFje34zPn7IEfF-103" value="&lt;font color=&quot;#ff00ff&quot; style=&quot;font-size: 24px&quot;&gt;AverageChunkQPSDown: 1868&amp;nbsp;&amp;nbsp;&lt;/font&gt;" style="text;html=1;align=center;verticalAlign=middle;resizable=0;points=[];autosize=1;strokeColor=none;fillColor=none;fontSize=18;fontFamily=Times New Roman;fontColor=#FFFFFF;" vertex="1" parent="ZhET5mZ9b83PnPrSQOGt-1">
          <mxGeometry x="353.5" y="2610" width="330" height="30" as="geometry" />
        </mxCell>
      </root>
    </mxGraphModel>
  </diagram>
</mxfile>
